<?xml version="1.0" encoding="UTF-8" standalone="no"?>
<!-- Created with Inkscape (http://www.inkscape.org/) -->

<svg
   width="16"
   height="16"
   viewBox="0 0 16 16"
   version="1.1"
   id="svg1"
   xml:space="preserve"
   inkscape:version="1.4.2 (ebf0e940d0, 2025-05-08)"
   sodipodi:docname="raSkat.svg"
   xmlns:inkscape="http://www.inkscape.org/namespaces/inkscape"
   xmlns:sodipodi="http://sodipodi.sourceforge.net/DTD/sodipodi-0.dtd"
   xmlns="http://www.w3.org/2000/svg"
   xmlns:svg="http://www.w3.org/2000/svg"><sodipodi:namedview
     id="namedview1"
     pagecolor="#505050"
     bordercolor="#ffffff"
     borderopacity="1"
     inkscape:showpageshadow="0"
     inkscape:pageopacity="0"
     inkscape:pagecheckerboard="1"
     inkscape:deskcolor="#505050"
     inkscape:document-units="px"
     inkscape:zoom="33.024938"
     inkscape:cx="7.9031186"
     inkscape:cy="9.0840443"
     inkscape:window-width="1920"
     inkscape:window-height="1025"
     inkscape:window-x="0"
     inkscape:window-y="0"
     inkscape:window-maximized="1"
     inkscape:current-layer="layer1" /><defs
     id="defs1" /><g
     inkscape:label="Слой 1"
     inkscape:groupmode="layer"
     id="layer1"><rect
       style="fill:#ffffff;fill-opacity:1"
       id="rect1"
       width="16"
       height="16"
       x="0"
       y="0"
       rx="8" /><path
       d="M 6.4601341,1.0560057 C 6.2755347,1.1500635 6.1487618,1.3084764 6.026437,1.605501 5.9396981,1.8084676 5.8840954,1.9025253 5.7773393,2.0262854 5.5104489,2.3356858 5.085648,2.6401358 4.4028535,3.0089411 3.2997062,3.6029898 3.0772975,3.7317005 2.8304239,3.9123901 2.1987829,4.3777285 1.7139318,4.8975211 1.280235,5.5757266 1.1067562,5.8430484 1,6.0658169 1,6.152449 c 0,0.1113839 0.03781,0.121285 0.3380612,0.091583 0.4248009,-0.044553 0.7895511,0.00248 1.2832985,0.1608879 0.2869073,0.094058 0.3869912,0.1435619 0.7917748,0.3910826 0.4626104,0.2846482 0.9963914,0.6856311 1.7347883,1.3019567 0.4047837,0.3391027 0.771758,0.5915734 1.1565252,0.7970151 0.3691982,0.1955416 0.6916908,0.3267268 0.9229963,0.3688055 0.091187,0.017328 0.1734787,0.03465 0.1823748,0.039605 0.0089,0.00742 -0.02224,0.086632 -0.068947,0.1782148 -0.1000839,0.1955414 -0.7762065,1.5890794 -0.9897185,2.0420434 -0.1534622,0.32425 -0.1734788,0.420783 -0.091188,0.43316 0.024465,0.0024 0.3380613,-0.04208 0.6961396,-0.101484 0.3558538,-0.05694 0.6494335,-0.09901 0.6494335,-0.08663 0,0.0099 -0.062275,0.170789 -0.1356696,0.358905 -0.9430128,2.366292 -1.0875787,2.742525 -1.0875787,2.82173 0,0.06435 0,0.06435 0.046707,0.01732 0.066723,-0.06436 0.3869913,-0.512366 0.8496014,-1.185622 1.2499359,-1.819274 1.8081819,-2.611338 2.1240022,-3.017272 0.1957198,-0.254946 0.1534621,-0.304449 -0.2246327,-0.262372 -0.1378936,0.01486 -0.4692825,0.05446 -0.7361729,0.08664 -0.2691146,0.03465 -0.4915233,0.0594 -0.4937473,0.05446 -0.00222,-0.0049 0.6093999,-1.3316602 0.6227443,-1.3465112 0.00222,-0.00245 0.077843,-0.017328 0.1690307,-0.034651 C 9.017834,9.2142913 9.2580353,9.1227056 9.6472508,8.9222144 10.085396,8.6920202 10.423458,8.4643015 10.903861,8.0657939 11.733445,7.3801625 12.07373,7.1252168 12.576374,6.8133411 12.965588,6.5707713 13.09681,6.5088913 13.428201,6.4074079 c 0.538227,-0.1658385 0.87184,-0.2029668 1.318882,-0.1534627 0.166806,0.017327 0.19572,0.014851 0.22908,-0.022277 C 15.047341,6.1499864 14.9606,5.9346437 14.69593,5.536136 14.251111,4.8678185 13.828536,4.4074308 13.27696,3.9940719 12.952244,3.7490267 12.694252,3.5930889 11.849098,3.1327011 10.605833,2.4520205 10.17436,2.1153927 10.003105,1.6896578 9.8763325,1.375307 9.8429713,1.3134269 9.7273183,1.1946172 9.5160298,0.98174969 9.2913968,0.93719597 9.2180023,1.0956091 9.1690721,1.1995677 9.1757437,1.2391708 9.2624842,1.4322367 9.3670164,1.6649059 9.3692405,1.7985668 9.2691532,1.9050005 9.1668462,2.0114342 9.0489694,2.0708391 8.8176644,2.1302439 8.477379,2.2193512 8.24385,2.2416281 7.8501864,2.2267768 7.1229099,2.1995496 6.6714202,2.0040086 6.6714202,1.7193603 c 0,-0.051979 0.031138,-0.1633634 0.068947,-0.2524707 0.088963,-0.2079171 0.093411,-0.3341524 0.01112,-0.413359 -0.075618,-0.0717809 -0.1512379,-0.0717809 -0.2913555,0.00247 z m 0.073395,1.2623537 c 0.033362,0.019802 0.1467896,0.1336611 0.2535457,0.2549459 L 6.9805703,2.7911232 6.9561053,2.8926065 6.9316403,2.9916145 6.4734785,3.1871557 C 6.2221569,3.2935895 5.8929918,3.4371511 5.743978,3.5089321 5.4971044,3.6252667 5.4704153,3.6326924 5.437054,3.5980394 5.4148133,3.5732874 5.363659,3.558436 5.2924882,3.558436 c -0.088964,0 -0.1201005,0.012376 -0.1757027,0.071781 L 5.047839,3.7044728 4.7742761,3.6747702 C 4.6252619,3.6574443 4.4651278,3.6376425 4.4184218,3.6277418 L 4.3339073,3.6128904 4.4184218,3.560911 C 4.4651278,3.5312089 4.598573,3.4520023 4.7142255,3.3851719 4.9944606,3.2242838 5.5504825,2.8505281 5.8840954,2.5980573 6.3022237,2.2812313 6.3978596,2.239153 6.5335291,2.3183594 Z m 3.3205626,0.074257 c 0.091187,0.051979 0.2201843,0.1361359 0.2869073,0.1856401 0.06673,0.051979 0.204615,0.1559379 0.306923,0.2326691 0.102308,0.074257 0.197944,0.1435617 0.21129,0.1485121 0.02,0.00743 0.01558,0.032177 -0.01112,0.086632 -0.02224,0.039603 -0.04004,0.091582 -0.04004,0.1113841 0,0.042078 -0.07562,0.064355 -0.447042,0.1287105 C 9.9119178,3.3307183 9.3492234,3.4544778 9.1423833,3.5114074 9.01561,3.5485354 8.9978174,3.5485354 8.9666801,3.5138874 8.9377675,3.4792334 8.9511112,3.4247794 9.117918,2.9718171 9.2869488,2.5089541 9.3558954,2.3530162 9.4181699,2.3010369 c 0.055602,-0.047029 0.2713388,-0.00248 0.4359218,0.091583 z m -2.8245916,0.024752 c 0.066724,0.034654 0.2112884,0.091582 0.3202686,0.1287104 0.1845993,0.064355 0.2290811,0.069305 0.5893832,0.069305 0.4203527,0.00248 0.6805707,-0.04208 1.0230802,-0.1707898 C 9.1045737,2.390139 9.1201423,2.390139 9.1067976,2.427268 9.0978976,2.449546 9.0334026,2.6525117 8.9622321,2.8777551 8.8910611,3.1029985 8.8265627,3.30349 8.8176665,3.3257669 c -0.0089,0.024752 -0.051154,0.047029 -0.1045319,0.054456 -0.051155,0.00743 -0.1178771,0.037128 -0.1534624,0.064355 L 8.4996221,3.4940808 8.223835,3.3703206 C 8.0748212,3.3034903 7.8390682,3.1871557 7.705623,3.1153748 7.503231,3.0089411 7.4587493,2.9742881 7.456525,2.9272595 7.4498526,2.8406272 7.3720097,2.7638959 7.2274443,2.7069663 7.1562733,2.6772639 7.0695336,2.6228093 7.0361725,2.5807309 6.9738981,2.5114252 6.8804866,2.3579627 6.9005033,2.3579627 c 0.00667,0 0.0645,0.027227 0.1289968,0.059406 z m -0.035585,0.7574111 c 0.0089,0.014851 -0.033362,0.1188098 -0.093412,0.2301938 C 6.840453,3.5163577 6.7181282,3.7490267 6.6269406,3.9222911 6.4823749,4.1945633 6.4512379,4.239117 6.4045319,4.239117 6.3733941,4.239117 6.324465,4.256444 6.2977757,4.27872 6.2510696,4.3158484 6.233277,4.3059477 5.8929918,4.0881296 5.5304656,3.8529853 5.4837599,3.8034815 5.5882919,3.7515021 5.7573226,3.6673451 6.9271922,3.1574533 6.9650018,3.1525029 c 0.0089,-0.00248 0.02224,0.0099 0.028913,0.022277 z M 7.88355,3.3802215 c 0.233529,0.1138591 0.4603861,0.2227681 0.5070917,0.2425698 0.04893,0.019802 0.080067,0.04703 0.077844,0.066831 C 8.4618177,3.7193243 7.7723461,4.0361508 7.623332,4.0782292 7.5721786,4.0930812 7.5699535,4.0831692 7.4698701,3.647544 7.3964751,3.3307175 7.374234,3.1945814 7.3920275,3.1747796 c 0.013345,-0.014852 0.033362,-0.019802 0.046706,-0.014852 0.011121,0.00743 0.2135124,0.1039584 0.4448165,0.2202939 z M 7.269702,3.4396265 C 7.3386485,3.7019981 7.4009232,3.9470432 7.4231639,4.043576 L 7.4454051,4.1326833 7.0450695,4.249018 C 6.7425931,4.3381253 6.6380609,4.360402 6.6180443,4.3381253 6.589131,4.3059476 6.6046997,4.2712947 6.922744,3.66487 7.0873267,3.3529943 7.1362563,3.276263 7.17629,3.2737877 c 0.042257,0 0.055602,0.024753 0.093412,0.1658388 z m 4.25023,0.05693 c 0.173479,0.108909 0.320268,0.1980163 0.322493,0.1980163 0.01779,0 0.900755,0.5965238 0.909652,0.6138504 0.0045,0.0099 -0.177928,0.1435617 -0.409232,0.2970244 -0.375872,0.2499952 -0.424801,0.2747475 -0.478179,0.2524705 -0.03113,-0.012376 -0.09119,-0.024751 -0.131221,-0.024751 -0.06227,0 -0.07785,-0.014852 -0.120101,-0.1064338 -0.02669,-0.056929 -0.09564,-0.205442 -0.155686,-0.3267269 -0.431473,-0.9009738 -0.455938,-0.9579035 -0.418129,-0.9826555 0.02224,-0.012376 0.04671,-0.051979 0.06005,-0.084157 0.02669,-0.081681 0.03113,-0.079207 0.420351,0.1633636 z M 10.643643,3.3727961 c 0.01778,0.019802 -0.0022,0.081681 -0.06005,0.2054415 -0.04448,0.099009 -0.173478,0.3737559 -0.282459,0.6113755 l -0.200169,0.4331605 -0.09786,0.014851 C 9.8896771,4.6574262 9.9319396,4.6871289 9.3959289,4.1821875 8.8955096,3.711899 8.8955096,3.7391261 9.4070497,3.6153658 9.7073012,3.5435858 10.534662,3.3628951 10.610281,3.3505194 c 0.0066,-0.00248 0.02223,0.0099 0.03336,0.022277 z m 0.389214,0.4678133 c 0.515988,1.0890891 0.509317,1.0717628 0.487075,1.1187917 -0.01779,0.032177 -0.04004,0.042079 -0.08451,0.034654 -0.102306,-0.022277 -0.76286,-0.1089098 -0.943011,-0.1262363 -0.166807,-0.01485 -0.173478,-0.019802 -0.21796,-0.1014831 l -0.04448,-0.084158 0.27801,-0.6014745 c 0.240202,-0.5173173 0.284683,-0.6014743 0.322492,-0.5915736 0.02891,0.00743 0.09786,0.1311859 0.202392,0.351479 z M 4.5251781,3.7960557 c 0.4981958,0.064354 0.4915234,0.06188 0.5115404,0.1138594 C 5.0478398,3.9445691 4.9544274,4.0609024 4.600797,4.4396084 4.1915652,4.8826698 4.1448592,4.9247483 4.0937053,4.9074219 4.033655,4.8900956 4.0002938,4.8950461 3.9224507,4.9371241 3.8690726,4.9643517 3.7667643,4.9272235 3.2507762,4.6896039 L 2.9305077,4.5435669 3.0728492,4.4321828 C 3.2641209,4.286146 4.0736886,3.7490267 4.113722,3.7440764 c 0.00667,0 0.1912718,0.022277 0.4114561,0.051979 z m 3.7297942,0.8514698 c -0.182375,0.4108837 -0.3291649,0.7054327 -0.3469576,0.7054327 -0.015568,0 -0.040034,-0.044553 -0.053378,-0.1064334 C 7.8412921,5.1895951 7.7834659,4.9544508 7.7278636,4.726732 7.6722617,4.496538 7.6277798,4.2935716 7.6277798,4.2762451 c 0,-0.019802 0.075618,-0.06188 0.1801511,-0.1039587 C 7.9080147,4.1351584 8.1059584,4.0510017 8.2483,3.9891215 8.6397395,3.8158573 8.6375152,3.7960557 8.2549675,4.6475255 Z M 9.1223664,4.1326833 c 0.1112044,0.1064337 0.3135963,0.2970243 0.4492658,0.4257349 0.1912714,0.1806901 0.2446499,0.245045 0.2402014,0.2846484 -0.00446,0.029701 -0.011121,0.054455 -0.013344,0.056929 -0.00446,0.00494 -0.7561899,0.2648467 -1.3900544,0.4801893 C 8.2082629,5.4494899 8.1059549,5.4742429 8.0903863,5.4569169 8.074818,5.4395906 8.1682293,5.204446 8.3817416,4.7242567 8.6819937,4.0510016 8.6997863,4.0163486 8.7576126,4.0163486 c 0.035585,0 0.082291,-0.017326 0.1067562,-0.037128 0.022241,-0.019802 0.044482,-0.037128 0.04893,-0.037128 0.00445,0 0.09786,0.086633 0.2090637,0.1905913 z M 5.9107845,4.2836706 c 0.2201847,0.146037 0.2490977,0.1732644 0.2490977,0.2326693 0,0.037127 0.015569,0.1039585 0.033362,0.1485121 L 6.2288296,4.746534 6.0153174,5.2093968 C 5.8974407,5.4668181 5.7929085,5.6747352 5.7817877,5.6747352 5.7573227,5.6747352 5.75065,5.6499832 5.6839283,5.303455 5.6527905,5.1475167 5.5838438,4.8059386 5.5282416,4.5485175 5.4348298,4.1153569 5.4281577,4.0757536 5.4637429,4.0485265 c 0.040033,-0.034653 0.01112,-0.051979 0.4470416,0.2351441 z M 5.2947123,4.1302082 c 0.0089,0.00494 0.022241,0.061879 0.031138,0.1262354 0.00667,0.06683 0.077844,0.4183092 0.1579104,0.7871144 0.126772,0.5915734 0.1401168,0.6707802 0.1089795,0.6955318 C 5.5660509,5.7613668 5.490432,5.7366138 5.230214,5.6178051 5.0500629,5.5361233 4.7631555,5.4049376 4.594125,5.3282062 4.2938731,5.1920702 4.2827528,5.1871196 4.2760805,5.1103885 4.2671841,5.0361323 4.2938731,5.0014796 4.6719679,4.5930711 4.8943767,4.350501 5.0878722,4.1401089 5.1012167,4.1227826 c 0.022241,-0.027227 0.1467899,-0.022277 0.1934956,0.00743 z m 2.3152748,0.7103832 c 0.071173,0.2895984 0.1289972,0.5321687 0.1289972,0.5395943 0,0.0099 -0.015568,0.022277 -0.033362,0.032177 C 7.6856058,5.4197927 7.6010909,5.3702847 7.4965586,5.2836529 7.3986987,5.2069215 7.1740659,5.0262315 6.9961388,4.8826698 6.7492652,4.6846535 6.6736462,4.6103976 6.6780945,4.5732694 6.6825445,4.5311914 6.7381445,4.5064384 7.0717581,4.409906 7.2852706,4.348027 7.4654216,4.3009971 7.4698696,4.3059476 c 0.00667,0.00494 0.068947,0.245045 0.1401175,0.5346438 z M 12.98783,4.481687 c 0.217961,0.1485121 0.889635,0.8514699 1.107597,1.158395 l 0.07118,0.1039584 -0.160134,0.014852 c -0.08897,0.0099 -0.244654,0.029702 -0.344738,0.044553 -0.20684,0.032177 -0.14679,0.05198 -0.985271,-0.3391025 -0.23798,-0.111385 -0.48263,-0.2252441 -0.542681,-0.2499961 -0.08451,-0.037128 -0.115652,-0.064355 -0.126771,-0.1188097 -0.01558,-0.059406 -0.0089,-0.074257 0.05337,-0.1138594 0.04003,-0.027227 0.235753,-0.1584129 0.438146,-0.2945493 0.202391,-0.1361362 0.380317,-0.2475203 0.393662,-0.2475203 0.01558,-0.00247 0.05782,0.017326 0.09564,0.042079 z M 3.1640368,4.82079 C 3.2774653,4.870293 3.4665127,4.9544508 3.5866136,5.0113804 3.7912294,5.1054384 3.80235,5.1153389 3.80235,5.1846446 c 0,0.1410865 0.095635,0.2648468 0.2046158,0.2673218 0.057827,0 0.077843,0.037128 0.3358372,0.6113751 0.1512378,0.3391029 0.3180446,0.7227594 0.3714225,0.8564204 0.084515,0.2103926 0.093412,0.2450448 0.0645,0.2772229 -0.02669,0.029702 -0.05338,0.01485 -0.1979448,-0.1138594 C 4.0269827,6.5905599 3.3575325,6.1623496 2.8215275,5.9618582 2.4901386,5.8380984 2.2788501,5.7861188 2.0052874,5.7613668 L 1.820688,5.7440405 1.9252202,5.602954 C 2.098699,5.3727601 2.398951,5.0386076 2.6080151,4.8430666 l 0.1957197,-0.183165 0.077843,0.037128 c 0.042258,0.019802 0.1690308,0.074257 0.282459,0.1237604 z m 3.9410826,0.341578 c 0.2691143,0.2202928 0.4915231,0.4207843 0.4959715,0.4405858 0.00446,0.032177 -0.026688,0.042078 -0.1890475,0.056929 -0.1067563,0.0099 -0.4581621,0.05693 -0.7806546,0.1039588 -0.3202685,0.047029 -0.5982795,0.084157 -0.6160721,0.084157 -0.017792,0 -0.042258,-0.024752 -0.057827,-0.05198 -0.020016,-0.047029 0.00445,-0.1163344 0.182375,-0.507416 0.2001676,-0.4381112 0.2112883,-0.4554375 0.2757867,-0.4554375 0.035585,-0.00248 0.091187,-0.017326 0.1223248,-0.037128 0.031138,-0.019802 0.06005,-0.034654 0.066723,-0.034654 0.00667,-0.00248 0.2313049,0.18069 0.5004202,0.4009849 z M 10.923877,5.085637 c 0.449265,0.064355 0.573815,0.089107 0.580487,0.1188096 0.0066,0.039603 -0.07785,0.2227684 -0.373646,0.816817 -0.173479,0.3465286 -0.182376,0.3589046 -0.246875,0.3514792 -0.03559,-0.00494 -0.0645,-0.012376 -0.06672,-0.012376 0,-0.00248 -0.126773,-0.2772226 -0.280236,-0.6113751 -0.251321,-0.54702 -0.275786,-0.6138504 -0.255769,-0.6757304 0.01334,-0.037128 0.03559,-0.06683 0.04671,-0.06683 0.01334,-0.00248 0.28246,0.034654 0.596057,0.079207 z M 9.8585393,5.12524 c 0.022242,0.027227 0.02891,0.054456 0.017789,0.069305 -0.011121,0.012376 -0.073395,0.1559378 -0.142342,0.3193013 -0.3269407,0.7895896 -0.2958038,0.7301847 -0.360302,0.7301847 -0.031138,0 -0.08674,0.017327 -0.1223249,0.037127 C 9.1846407,6.3182866 9.1779682,6.3158111 8.6619803,6.0163119 8.3039023,5.8083957 8.1393198,5.6994868 8.1437678,5.6747348 8.1482162,5.6524579 8.3127986,5.5831523 8.6286189,5.4742435 9.9319343,5.0237564 9.8051608,5.0584092 9.8585393,5.12524 Z m 0.5671427,0.7227595 0.266889,0.5816722 -0.04225,0.059405 -0.04225,0.05693 -0.462611,-0.042079 C 9.8919075,6.4816511 9.671723,6.4544237 9.6561544,6.4469988 9.6405855,6.4370988 9.6116729,6.3999698 9.5916564,6.3653168 9.5582952,6.3059118 9.5649671,6.2836348 9.7829271,5.7712681 9.960854,5.3504833 10.016456,5.2390994 10.05649,5.2267233 c 0.02891,-0.00743 0.06227,-0.00248 0.07562,0.012376 0.01334,0.014851 0.144566,0.2895985 0.293581,0.6089001 z M 12.23164,5.4296896 c 0.140117,0.066831 0.415904,0.195541 0.611625,0.2846483 0.195719,0.089107 0.369198,0.1707889 0.386991,0.1831651 0.02002,0.012376 -0.0089,0.032177 -0.08897,0.06188 -0.231305,0.081681 -0.702811,0.3564291 -1.03865,0.6064246 L 11.76013,6.8182785 11.546617,6.7514475 c -0.117877,-0.037128 -0.26689,-0.081681 -0.331388,-0.1014833 -0.09119,-0.029703 -0.117877,-0.051979 -0.135671,-0.1039585 -0.01779,-0.05693 -0.0045,-0.096533 0.08896,-0.2772229 0.06005,-0.1163343 0.184599,-0.368805 0.280237,-0.5618708 0.149013,-0.3069254 0.177926,-0.3514788 0.215734,-0.3366275 0.07117,0.024751 0.166808,0.012376 0.217962,-0.027227 0.02669,-0.019802 0.06005,-0.037128 0.07116,-0.037128 0.01335,-0.00248 0.137894,0.054455 0.278011,0.1237596 z M 5.2524546,5.8009701 c 0.1912718,0.086632 0.2379774,0.1163346 0.2268572,0.1509873 -0.00667,0.022277 0.00446,0.079208 0.02224,0.1287105 l 0.031138,0.086632 -0.1579101,0.30445 c -0.3069239,0.5866238 -0.3358369,0.638603 -0.3780945,0.638603 -0.031138,0 -0.082291,-0.096533 -0.2068402,-0.3910821 C 4.6986568,6.5064029 4.5296265,6.1202713 4.4139739,5.8628503 4.2605118,5.5237474 4.2093578,5.3876111 4.2249265,5.3653344 c 0.017792,-0.024752 0.1089802,0.0099 0.4070078,0.1485122 0.2090641,0.099008 0.4892991,0.2277188 0.6205203,0.2871235 z m 2.3931178,0.051979 C 7.6500349,5.8752261 7.48099,6.1772007 7.2697018,6.5262045 L 6.8871586,7.1573816 6.7781785,7.1549057 H 6.6714223 L 6.3266887,6.6598651 C 6.0153167,6.2143284 5.9797315,6.1573991 5.9930757,6.0930437 c 0.0089,-0.039603 0.022241,-0.071781 0.028913,-0.074257 0.0089,0 0.3358369,-0.049504 0.7272761,-0.1089088 C 7.5187994,5.7935434 7.6344519,5.786118 7.6455724,5.8529491 Z m 0.6249685,0.11881 c 0.086739,0.054456 0.1623586,0.099008 0.1712549,0.099008 0.0089,0 0.1623581,0.089107 0.3425092,0.1980162 L 9.1112461,6.4668 9.1245907,6.5682832 c 0.00667,0.05693 0.033362,0.1287103 0.062275,0.1608884 l 0.04893,0.056929 -0.193496,0.5272181 C 8.9355429,7.6029178 8.8399074,7.8652896 8.8287869,7.8949918 8.8043217,7.9642977 8.7709604,7.9667728 8.7420475,7.907368 8.7309272,7.8826161 8.5641202,7.4247034 8.3750732,6.8875842 7.9769614,5.7663174 7.9791857,5.7885943 8.2705409,5.9717591 Z M 8.0125469,6.3108617 C 8.2038183,6.8356047 8.528535,7.7514299 8.575241,7.897467 8.599706,7.976674 8.6063787,8.0336031 8.5930341,8.0484543 8.5819132,8.0608304 8.3706248,7.9840993 8.0948382,7.8652896 7.8323958,7.7539056 7.4921106,7.612819 7.3430964,7.5534138 7.0717581,7.4445048 7.0673098,7.4420298 7.0383968,7.3479721 L 7.0072595,7.2514391 7.3898024,6.6128365 C 7.8679812,5.813346 7.8368439,5.8281972 8.0125469,6.3108617 Z M 6.2088121,6.7539231 C 6.5023918,7.1821336 6.5557698,7.271241 6.540201,7.3157944 6.529081,7.3479714 6.504616,7.3677734 6.480151,7.3652994 6.455686,7.3628194 6.1576586,7.3405464 5.8151491,7.3182694 5.4326061,7.2935174 5.1812843,7.2662904 5.1657158,7.2489644 c -0.022241,-0.022277 -0.013345,-0.051979 0.035585,-0.1386117 0.033361,-0.06188 0.1490136,-0.2747475 0.25577,-0.4752389 l 0.1912712,-0.363855 0.093412,-0.0099 c 0.053378,-0.00494 0.1000839,-0.0099 0.1067561,-0.012376 0.00667,0 0.1690306,0.2252436 0.360302,0.5049403 z m 3.9410829,-0.089107 c 0.242425,0.027227 0.447041,0.051979 0.45149,0.05693 0.0045,0.00494 -0.06005,0.059405 -0.142342,0.12376 -0.08452,0.06188 -0.45149,0.3465279 -0.8184642,0.6336518 C 9.2736045,7.7662814 8.9711285,7.9890495 8.9666801,7.9766736 8.9622263,7.9642976 9.0334032,7.748955 9.1268147,7.5014346 9.2180023,7.2514392 9.3091897,7.0014436 9.3292064,6.9469889 9.358119,6.8603569 9.382584,6.835605 9.4648755,6.8009522 c 0.064499,-0.027227 0.1112046,-0.06683 0.1312216,-0.1138594 0.020017,-0.039603 0.051153,-0.07178 0.073395,-0.07178 0.020017,0 0.2379772,0.022277 0.4804029,0.049503 z m 1.187662,0.1881153 c 0.131221,0.034654 0.244649,0.07178 0.253546,0.081682 0.0267,0.027227 -1.036424,0.9282009 -1.472346,1.2499774 C 9.7918162,8.4246855 9.4026012,8.6697305 9.2091058,8.756363 9.086781,8.8132922 8.7642884,8.9048752 8.7509438,8.8875484 8.730927,8.8627964 8.8999576,8.5162683 8.9689045,8.4420121 9.0400748,8.3652807 9.0511957,8.3380533 9.0511957,8.2390456 V 8.1276608 L 9.3358791,7.9123183 c 0.1556862,-0.1212848 0.5204369,-0.403458 0.8140159,-0.633652 0.500419,-0.3910821 0.531556,-0.4133586 0.576038,-0.378706 0.08007,0.06188 0.204617,0.047029 0.286907,-0.037127 0.04004,-0.039603 0.07563,-0.074256 0.08007,-0.074256 0.0022,0 0.113428,0.029701 0.24465,0.064355 z M 5.9485941,7.496484 c 0.306924,0.022278 0.5604697,0.049504 0.562694,0.06188 0.022241,0.064355 0.1267728,0.1707889 0.1934955,0.2004915 0.06005,0.022276 0.080067,0.047029 0.088964,0.1039584 0.00667,0.042079 0.046706,0.2747476 0.086741,0.5173175 C 6.9672255,8.8974488 7.0050359,8.8677461 6.5624423,8.6276515 6.2621901,8.4618133 6.0197647,8.2910245 5.4592951,7.8454878 5.2880403,7.7093516 5.1456986,7.5954922 5.1434743,7.593017 5.1390205,7.590537 5.1501418,7.553414 5.165715,7.50886 5.19018,7.432129 5.1946285,7.429652 5.2924879,7.442029 5.3480898,7.449459 5.6438938,7.474206 5.9485941,7.496483 Z M 7.5721778,7.8207361 C 7.8168273,7.9222189 8.1170788,8.0459792 8.2394037,8.0930083 8.5174147,8.199442 8.5618963,8.2316196 8.5463281,8.3009252 8.526311,8.382607 8.29723,8.6425032 8.1571123,8.7464616 7.985858,8.8702218 7.7656731,8.9271515 7.4943346,8.9222013 7.3786821,8.9197255 7.2430125,8.9073499 7.196307,8.8974492 L 7.1073433,8.8801226 7.0472931,8.4964665 C 7.0139318,8.2860739 6.9716742,8.0286528 6.9538813,7.9222189 l -0.031137,-0.1881152 0.057827,-0.064355 c 0.066723,-0.076731 0.017793,-0.089107 0.5916065,0.1509874 z"
       id="path1"
       style="fill:#000000;stroke:none;stroke-width:0.0023463" /></g></svg>
