M48
;FILE_FORMAT=4:2 (non-Excellon-standard format)
INCH
;TYPE=PLATED
T01C0.020
T02C0.038
T03C0.118
%
T01
X+000016Y+000026
X+000026Y+000014
Y+000026
X+000011Y+000036
Y+000044
Y+000051
Y+000065
Y+000071
Y+000086
X+000020
X+000011Y+000079
X+000020
X+000028
X+000011Y+000094
Y+000104
X+000020Y+000094
Y+000101
X+000011Y+000113
X+000020Y+000115
X+000011Y+000108
X+000020
X+000017Y+000126
X+000011
Y+000194
X+000014Y+000190
Y+000185
X+000019Y+000190
Y+000185
X+000011Y+000205
X+000026Y+000194
X+000011Y+000216
Y+000229
Y+000251
X+000026Y+000266
Y+000256
X+000024Y+000251
X+000045Y+000014
X+000036
X+000053
X+000042Y+000079
X+000035
X+000049
X+000055
X+000035Y+000174
X+000046Y+000177
X+000056
X+000042Y+000194
X+000044Y+000183
X+000035
X+000054Y+000194
X+000042Y+000266
X+000070Y+000014
X+000080
X+000075Y+000080
X+000086
X+000068Y+000079
X+000078Y+000076
X+000084
X+000076Y+000093
X+000072Y+000097
X+000082
X+000074Y+000175
X+000085Y+000158
Y+000163
Y+000168
X+000079Y+000266
X+000100Y+000014
X+000110
X+000108Y+000080
X+000097
X+000116
X+000099Y+000076
X+000106
X+000118
X+000100Y+000099
X+000108Y+000097
X+000093
X+000118
X+000114Y+000123
Y+000129
X+000118Y+000193
X+000116Y+000196
X+000115Y+000204
X+000096Y+000266
X+000114
X+000130Y+000014
X+000140
Y+000074
X+000127Y+000080
X+000148Y+000068
X+000135Y+000079
X+000125Y+000076
Y+000094
X+000127Y+000097
Y+000129
Y+000124
Y+000195
X+000123Y+000193
X+000139Y+000202
X+000134Y+000199
X+000144Y+000206
X+000131Y+000266
X+000159Y+000014
X+000169
Y+000025
X+000163Y+000035
X+000169Y+000036
X+000163Y+000054
X+000164Y+000221
X+000159Y+000217
X+000154Y+000214
X+000169Y+000225
X+000174Y+000234
Y+000229
X+000169Y+000251
Y+000260
Y+000266
X+000176Y+000251
X+000183Y+000026
Y+000036
X+000184Y+000245
Y+000251
X+000011Y+000029
Y+000059
X+000017Y+000120
X+000011
X+000014Y+000179
X+000019
X+000011Y+000239
X+000054Y+000210
X+000086Y+000090
X+000063Y+000181
X+000072
X+000068Y+000211
X+000084
X+000096Y+000090
X+000109
X+000118Y+000119
X+000115Y+000090
X+000100Y+000211
X+000114
X+000127Y+000119
X+000123
X+000154Y+000061
X+000177Y+000239
X+000174
X+000185
X+000061Y+000014
X+000091
X+000119
X+000061Y+000079
X+000121Y+000130
X+000060Y+000266
X+000150Y+000014
Y+000266
X+000149Y+000210
X+000181Y+000239
T02
X+000180Y+000234
Y+000214
Y+000204
Y+000184
Y+000174
Y+000114
Y+000094
Y+000064
Y+000054
Y+000194
Y+000224
Y+000044
Y+000074
Y+000104
T03
X+000015Y+000015
Y+000263
X+000180Y+000015
Y+000263
T00
M30
