0
SECTION
2
HEADER
9
$ACADVER
1
AC1009
9
$TEXTSTYLE
7
STANDARD
9
$CECOLOR
62
256
9
$AUNITS
70
0
9
$LUNITS
70
3
9
$EXTMIN
10
0.0000000
20
0.0000000
9
$EXTMAX
10
0.0000000
20
0.0000000
9
$FILLMODE
70
1
0
ENDSEC
0
SECTION
2
TABLES
0
TABLE
2
LAYER
70
1
0
LAYER
2
Top_Mask
70
64
62
4
6
CONTINUOUS
0
LAYER
2
Drill_Layer
70
64
62
255
6
CONTINUOUS
0
ENDTAB
0
ENDSEC
0
SECTION
2
BLOCKS
0
BLOCK
2
UNIT_DISC
8
0
70
0
10
0.0000000
20
0.0000000
0
POLYLINE
8
0
6
CONTINUOUS
66
1
70
1
40
0.5000000
41
0.5000000
0
VERTEX
8
0
10
0.2500000
20
0.0000000
42
1.0000000
0
VERTEX
8
0
10
-0.2500000
20
0.0000000
42
1.0000000
0
SEQEND
0
ENDBLK
0
BLOCK
2
UNIT_CIRCLE
8
0
70
0
10
0.0000000
20
0.0000000
0
CIRCLE
8
0
6
CONTINUOUS
10
0.0000000
20
0.0000000
40
0.5000000
0
ENDBLK
0
BLOCK
2
SHAPE_EL_425_425_0_0_0_0
8
0
70
0
10
0.0000000
20
0.0000000
0
INSERT
8
0
2
UNIT_DISC
10
0.0000000
20
0.0000000
41
1.0810000
42
1.0810000
43
1.0810000
50
0.0000000
0
ENDBLK
0
BLOCK
2
SHAPE_SQ_543_622_0_0_0_0
8
0
70
0
10
0.0000000
20
0.0000000
0
SOLID
8
0
10
-0.6905000
20
-0.7905000
11
0.6905000
21
-0.7905000
12
-0.6905000
22
0.7905000
13
0.6905000
23
0.7905000
0
ENDBLK
0
BLOCK
2
SHAPE_EL_1724_1724_0_0_0_0
8
0
70
0
10
0.0000000
20
0.0000000
0
INSERT
8
0
2
UNIT_DISC
10
0.0000000
20
0.0000000
41
4.3810000
42
4.3810000
43
4.3810000
50
0.0000000
0
ENDBLK
0
BLOCK
2
SHAPE_SQ_937_858_0_0_0_0
8
0
70
0
10
0.0000000
20
0.0000000
0
SOLID
8
0
10
-1.1905000
20
-1.0905000
11
1.1905000
21
-1.0905000
12
-1.1905000
22
1.0905000
13
1.1905000
23
1.0905000
0
ENDBLK
0
BLOCK
2
SHAPE_EL_750_750_0_0_0_0
8
0
70
0
10
0.0000000
20
0.0000000
0
INSERT
8
0
2
UNIT_DISC
10
0.0000000
20
0.0000000
41
1.9050000
42
1.9050000
43
1.9050000
50
0.0000000
0
ENDBLK
0
BLOCK
2
SHAPE_SQ_858_937_0_0_0_0
8
0
70
0
10
0.0000000
20
0.0000000
0
SOLID
8
0
10
-1.0905000
20
-1.1905000
11
1.0905000
21
-1.1905000
12
-1.0905000
22
1.1905000
13
1.0905000
23
1.1905000
0
ENDBLK
0
BLOCK
2
SHAPE_SQ_450_299_0_0_0_0
8
0
70
0
10
0.0000000
20
0.0000000
0
SOLID
8
0
10
-0.5715000
20
-0.3805000
11
0.5715000
21
-0.3805000
12
-0.5715000
22
0.3805000
13
0.5715000
23
0.3805000
0
ENDBLK
0
BLOCK
2
zaclepki
8
0
70
0
10
0.0000000
20
0.0000000
0
INSERT
8
Top_Mask
2
SHAPE_EL_425_425_0_0_0_0
10
0.0000000
20
0.0000000
41
1.0000000
42
1.0000000
43
1.0000000
50
0.0000000
0
ENDBLK
0
BLOCK
2
1x1_23
8
0
70
0
10
0.0000000
20
0.0000000
0
INSERT
8
Top_Mask
2
SHAPE_SQ_543_622_0_0_0_0
10
0.0000000
20
0.0000000
41
1.0000000
42
1.0000000
43
1.0000000
50
0.0000000
0
ENDBLK
0
BLOCK
2
1x1_222
8
0
70
0
10
0.0000000
20
0.0000000
0
INSERT
8
Top_Mask
2
SHAPE_SQ_543_622_0_0_0_0
10
0.0000000
20
0.0000000
41
1.0000000
42
1.0000000
43
1.0000000
50
0.0000000
0
ENDBLK
0
BLOCK
2
1x1_221
8
0
70
0
10
0.0000000
20
0.0000000
0
INSERT
8
Top_Mask
2
SHAPE_SQ_543_622_0_0_0_0
10
0.0000000
20
0.0000000
41
1.0000000
42
1.0000000
43
1.0000000
50
0.0000000
0
ENDBLK
0
BLOCK
2
1x1_22
8
0
70
0
10
0.0000000
20
0.0000000
0
INSERT
8
Top_Mask
2
SHAPE_SQ_543_622_0_0_0_0
10
0.0000000
20
0.0000000
41
1.0000000
42
1.0000000
43
1.0000000
50
0.0000000
0
ENDBLK
0
BLOCK
2
1x1_21
8
0
70
0
10
0.0000000
20
0.0000000
0
INSERT
8
Top_Mask
2
SHAPE_SQ_543_622_0_0_0_0
10
0.0000000
20
0.0000000
41
1.0000000
42
1.0000000
43
1.0000000
50
0.0000000
0
ENDBLK
0
BLOCK
2
1x1_226
8
0
70
0
10
0.0000000
20
0.0000000
0
INSERT
8
Top_Mask
2
SHAPE_SQ_543_622_0_0_0_0
10
0.0000000
20
0.0000000
41
1.0000000
42
1.0000000
43
1.0000000
50
0.0000000
0
ENDBLK
0
BLOCK
2
1x1_24
8
0
70
0
10
0.0000000
20
0.0000000
0
INSERT
8
Top_Mask
2
SHAPE_SQ_543_622_0_0_0_0
10
0.0000000
20
0.0000000
41
1.0000000
42
1.0000000
43
1.0000000
50
0.0000000
0
ENDBLK
0
BLOCK
2
1x1_28
8
0
70
0
10
0.0000000
20
0.0000000
0
INSERT
8
Top_Mask
2
SHAPE_SQ_543_622_0_0_0_0
10
0.0000000
20
0.0000000
41
1.0000000
42
1.0000000
43
1.0000000
50
0.0000000
0
ENDBLK
0
BLOCK
2
1x1_26
8
0
70
0
10
0.0000000
20
0.0000000
0
INSERT
8
Top_Mask
2
SHAPE_SQ_543_622_0_0_0_0
10
0.0000000
20
0.0000000
41
1.0000000
42
1.0000000
43
1.0000000
50
0.0000000
0
ENDBLK
0
BLOCK
2
1x1_223
8
0
70
0
10
0.0000000
20
0.0000000
0
INSERT
8
Top_Mask
2
SHAPE_SQ_543_622_0_0_0_0
10
0.0000000
20
0.0000000
41
1.0000000
42
1.0000000
43
1.0000000
50
0.0000000
0
ENDBLK
0
BLOCK
2
1x1_228
8
0
70
0
10
0.0000000
20
0.0000000
0
INSERT
8
Top_Mask
2
SHAPE_SQ_543_622_0_0_0_0
10
0.0000000
20
0.0000000
41
1.0000000
42
1.0000000
43
1.0000000
50
0.0000000
0
ENDBLK
0
BLOCK
2
diam_swer
8
0
70
0
10
0.0000000
20
0.0000000
0
INSERT
8
Top_Mask
2
SHAPE_EL_1724_1724_0_0_0_0
10
0.0000000
20
0.0000000
41
1.0000000
42
1.0000000
43
1.0000000
50
0.0000000
0
ENDBLK
0
BLOCK
2
1x1_25
8
0
70
0
10
0.0000000
20
0.0000000
0
INSERT
8
Top_Mask
2
SHAPE_SQ_543_622_0_0_0_0
10
0.0000000
20
0.0000000
41
1.0000000
42
1.0000000
43
1.0000000
50
0.0000000
0
ENDBLK
0
BLOCK
2
1x1_227
8
0
70
0
10
0.0000000
20
0.0000000
0
INSERT
8
Top_Mask
2
SHAPE_SQ_543_622_0_0_0_0
10
0.0000000
20
0.0000000
41
1.0000000
42
1.0000000
43
1.0000000
50
0.0000000
0
ENDBLK
0
BLOCK
2
1x1_2
8
0
70
0
10
0.0000000
20
0.0000000
0
INSERT
8
Top_Mask
2
SHAPE_SQ_543_622_0_0_0_0
10
0.0000000
20
0.0000000
41
1.0000000
42
1.0000000
43
1.0000000
50
0.0000000
0
ENDBLK
0
BLOCK
2
1x1_220
8
0
70
0
10
0.0000000
20
0.0000000
0
INSERT
8
Top_Mask
2
SHAPE_SQ_543_622_0_0_0_0
10
0.0000000
20
0.0000000
41
1.0000000
42
1.0000000
43
1.0000000
50
0.0000000
0
ENDBLK
0
BLOCK
2
1x1_225
8
0
70
0
10
0.0000000
20
0.0000000
0
INSERT
8
Top_Mask
2
SHAPE_SQ_543_622_0_0_0_0
10
0.0000000
20
0.0000000
41
1.0000000
42
1.0000000
43
1.0000000
50
0.0000000
0
ENDBLK
0
BLOCK
2
1x1_27
8
0
70
0
10
0.0000000
20
0.0000000
0
INSERT
8
Top_Mask
2
SHAPE_SQ_543_622_0_0_0_0
10
0.0000000
20
0.0000000
41
1.0000000
42
1.0000000
43
1.0000000
50
0.0000000
0
ENDBLK
0
BLOCK
2
gen_pad3
8
0
70
0
10
0.0000000
20
0.0000000
0
INSERT
8
Top_Mask
2
SHAPE_SQ_937_858_0_0_0_0
10
0.0000000
20
0.0000000
41
1.0000000
42
1.0000000
43
1.0000000
50
0.0000000
0
ENDBLK
0
BLOCK
2
gen_pad7
8
0
70
0
10
0.0000000
20
0.0000000
0
INSERT
8
Top_Mask
2
SHAPE_SQ_937_858_0_0_0_0
10
0.0000000
20
0.0000000
41
1.0000000
42
1.0000000
43
1.0000000
50
0.0000000
0
ENDBLK
0
BLOCK
2
gen_pad2
8
0
70
0
10
0.0000000
20
0.0000000
0
INSERT
8
Top_Mask
2
SHAPE_SQ_937_858_0_0_0_0
10
0.0000000
20
0.0000000
41
1.0000000
42
1.0000000
43
1.0000000
50
0.0000000
0
ENDBLK
0
BLOCK
2
gen_pad5
8
0
70
0
10
0.0000000
20
0.0000000
0
INSERT
8
Top_Mask
2
SHAPE_SQ_937_858_0_0_0_0
10
0.0000000
20
0.0000000
41
1.0000000
42
1.0000000
43
1.0000000
50
0.0000000
0
ENDBLK
0
BLOCK
2
gen_pad1
8
0
70
0
10
0.0000000
20
0.0000000
0
INSERT
8
Top_Mask
2
SHAPE_SQ_937_858_0_0_0_0
10
0.0000000
20
0.0000000
41
1.0000000
42
1.0000000
43
1.0000000
50
0.0000000
0
ENDBLK
0
BLOCK
2
_Default_pad3
8
0
70
0
10
0.0000000
20
0.0000000
0
INSERT
8
Top_Mask
2
SHAPE_EL_750_750_0_0_0_0
10
0.0000000
20
0.0000000
41
1.0000000
42
1.0000000
43
1.0000000
50
0.0000000
0
ENDBLK
0
BLOCK
2
_Default_pad19
8
0
70
0
10
0.0000000
20
0.0000000
0
INSERT
8
Top_Mask
2
SHAPE_EL_750_750_0_0_0_0
10
0.0000000
20
0.0000000
41
1.0000000
42
1.0000000
43
1.0000000
50
0.0000000
0
ENDBLK
0
BLOCK
2
_Default_pad18
8
0
70
0
10
0.0000000
20
0.0000000
0
INSERT
8
Top_Mask
2
SHAPE_EL_750_750_0_0_0_0
10
0.0000000
20
0.0000000
41
1.0000000
42
1.0000000
43
1.0000000
50
0.0000000
0
ENDBLK
0
BLOCK
2
_Default_pad16
8
0
70
0
10
0.0000000
20
0.0000000
0
INSERT
8
Top_Mask
2
SHAPE_EL_750_750_0_0_0_0
10
0.0000000
20
0.0000000
41
1.0000000
42
1.0000000
43
1.0000000
50
0.0000000
0
ENDBLK
0
BLOCK
2
_Default_pad15
8
0
70
0
10
0.0000000
20
0.0000000
0
INSERT
8
Top_Mask
2
SHAPE_EL_750_750_0_0_0_0
10
0.0000000
20
0.0000000
41
1.0000000
42
1.0000000
43
1.0000000
50
0.0000000
0
ENDBLK
0
BLOCK
2
_Default_pad14
8
0
70
0
10
0.0000000
20
0.0000000
0
INSERT
8
Top_Mask
2
SHAPE_EL_750_750_0_0_0_0
10
0.0000000
20
0.0000000
41
1.0000000
42
1.0000000
43
1.0000000
50
0.0000000
0
ENDBLK
0
BLOCK
2
_Default_pad12
8
0
70
0
10
0.0000000
20
0.0000000
0
INSERT
8
Top_Mask
2
SHAPE_EL_750_750_0_0_0_0
10
0.0000000
20
0.0000000
41
1.0000000
42
1.0000000
43
1.0000000
50
0.0000000
0
ENDBLK
0
BLOCK
2
_Default_pad10
8
0
70
0
10
0.0000000
20
0.0000000
0
INSERT
8
Top_Mask
2
SHAPE_EL_750_750_0_0_0_0
10
0.0000000
20
0.0000000
41
1.0000000
42
1.0000000
43
1.0000000
50
0.0000000
0
ENDBLK
0
BLOCK
2
_Default_pad9
8
0
70
0
10
0.0000000
20
0.0000000
0
INSERT
8
Top_Mask
2
SHAPE_EL_750_750_0_0_0_0
10
0.0000000
20
0.0000000
41
1.0000000
42
1.0000000
43
1.0000000
50
0.0000000
0
ENDBLK
0
BLOCK
2
_Default_pad17
8
0
70
0
10
0.0000000
20
0.0000000
0
INSERT
8
Top_Mask
2
SHAPE_EL_750_750_0_0_0_0
10
0.0000000
20
0.0000000
41
1.0000000
42
1.0000000
43
1.0000000
50
0.0000000
0
ENDBLK
0
BLOCK
2
_Default_pad20
8
0
70
0
10
0.0000000
20
0.0000000
0
INSERT
8
Top_Mask
2
SHAPE_EL_750_750_0_0_0_0
10
0.0000000
20
0.0000000
41
1.0000000
42
1.0000000
43
1.0000000
50
0.0000000
0
ENDBLK
0
BLOCK
2
_Default_pad21
8
0
70
0
10
0.0000000
20
0.0000000
0
INSERT
8
Top_Mask
2
SHAPE_EL_750_750_0_0_0_0
10
0.0000000
20
0.0000000
41
1.0000000
42
1.0000000
43
1.0000000
50
0.0000000
0
ENDBLK
0
BLOCK
2
_Default_pad11
8
0
70
0
10
0.0000000
20
0.0000000
0
INSERT
8
Top_Mask
2
SHAPE_EL_750_750_0_0_0_0
10
0.0000000
20
0.0000000
41
1.0000000
42
1.0000000
43
1.0000000
50
0.0000000
0
ENDBLK
0
BLOCK
2
_Default_pad13
8
0
70
0
10
0.0000000
20
0.0000000
0
INSERT
8
Top_Mask
2
SHAPE_EL_750_750_0_0_0_0
10
0.0000000
20
0.0000000
41
1.0000000
42
1.0000000
43
1.0000000
50
0.0000000
0
ENDBLK
0
BLOCK
2
1
8
0
70
0
10
0.0000000
20
0.0000000
0
INSERT
8
Top_Mask
2
SHAPE_SQ_858_937_0_0_0_0
10
0.0000000
20
0.0000000
41
1.0000000
42
1.0000000
43
1.0000000
50
0.0000000
0
ENDBLK
0
BLOCK
2
121
8
0
70
0
10
0.0000000
20
0.0000000
0
INSERT
8
Top_Mask
2
SHAPE_SQ_858_937_0_0_0_0
10
0.0000000
20
0.0000000
41
1.0000000
42
1.0000000
43
1.0000000
50
0.0000000
0
ENDBLK
0
BLOCK
2
13
8
0
70
0
10
0.0000000
20
0.0000000
0
INSERT
8
Top_Mask
2
SHAPE_SQ_858_937_0_0_0_0
10
0.0000000
20
0.0000000
41
1.0000000
42
1.0000000
43
1.0000000
50
0.0000000
0
ENDBLK
0
BLOCK
2
125
8
0
70
0
10
0.0000000
20
0.0000000
0
INSERT
8
Top_Mask
2
SHAPE_SQ_858_937_0_0_0_0
10
0.0000000
20
0.0000000
41
1.0000000
42
1.0000000
43
1.0000000
50
0.0000000
0
ENDBLK
0
BLOCK
2
ad920013
8
0
70
0
10
0.0000000
20
0.0000000
0
INSERT
8
Top_Mask
2
SHAPE_SQ_450_299_0_0_0_0
10
0.0000000
20
0.0000000
41
1.0000000
42
1.0000000
43
1.0000000
50
0.0000000
0
ENDBLK
0
BLOCK
2
ad920014
8
0
70
0
10
0.0000000
20
0.0000000
0
INSERT
8
Top_Mask
2
SHAPE_SQ_450_299_0_0_0_0
10
0.0000000
20
0.0000000
41
1.0000000
42
1.0000000
43
1.0000000
50
0.0000000
0
ENDBLK
0
BLOCK
2
ad920015
8
0
70
0
10
0.0000000
20
0.0000000
0
INSERT
8
Top_Mask
2
SHAPE_SQ_450_299_0_0_0_0
10
0.0000000
20
0.0000000
41
1.0000000
42
1.0000000
43
1.0000000
50
0.0000000
0
ENDBLK
0
BLOCK
2
ad920016
8
0
70
0
10
0.0000000
20
0.0000000
0
INSERT
8
Top_Mask
2
SHAPE_SQ_450_299_0_0_0_0
10
0.0000000
20
0.0000000
41
1.0000000
42
1.0000000
43
1.0000000
50
0.0000000
0
ENDBLK
0
BLOCK
2
ad920017
8
0
70
0
10
0.0000000
20
0.0000000
0
INSERT
8
Top_Mask
2
SHAPE_SQ_450_299_0_0_0_0
10
0.0000000
20
0.0000000
41
1.0000000
42
1.0000000
43
1.0000000
50
0.0000000
0
ENDBLK
0
BLOCK
2
ad920018
8
0
70
0
10
0.0000000
20
0.0000000
0
INSERT
8
Top_Mask
2
SHAPE_SQ_450_299_0_0_0_0
10
0.0000000
20
0.0000000
41
1.0000000
42
1.0000000
43
1.0000000
50
0.0000000
0
ENDBLK
0
BLOCK
2
ad920019
8
0
70
0
10
0.0000000
20
0.0000000
0
INSERT
8
Top_Mask
2
SHAPE_SQ_450_299_0_0_0_0
10
0.0000000
20
0.0000000
41
1.0000000
42
1.0000000
43
1.0000000
50
0.0000000
0
ENDBLK
0
BLOCK
2
ad92003
8
0
70
0
10
0.0000000
20
0.0000000
0
INSERT
8
Top_Mask
2
SHAPE_SQ_450_299_0_0_0_0
10
0.0000000
20
0.0000000
41
1.0000000
42
1.0000000
43
1.0000000
50
0.0000000
0
ENDBLK
0
BLOCK
2
ad920012
8
0
70
0
10
0.0000000
20
0.0000000
0
INSERT
8
Top_Mask
2
SHAPE_SQ_450_299_0_0_0_0
10
0.0000000
20
0.0000000
41
1.0000000
42
1.0000000
43
1.0000000
50
0.0000000
0
ENDBLK
0
BLOCK
2
ad920023
8
0
70
0
10
0.0000000
20
0.0000000
0
INSERT
8
Top_Mask
2
SHAPE_SQ_450_299_0_0_0_0
10
0.0000000
20
0.0000000
41
1.0000000
42
1.0000000
43
1.0000000
50
0.0000000
0
ENDBLK
0
BLOCK
2
ad92009
8
0
70
0
10
0.0000000
20
0.0000000
0
INSERT
8
Top_Mask
2
SHAPE_SQ_450_299_0_0_0_0
10
0.0000000
20
0.0000000
41
1.0000000
42
1.0000000
43
1.0000000
50
0.0000000
0
ENDBLK
0
BLOCK
2
ad920010
8
0
70
0
10
0.0000000
20
0.0000000
0
INSERT
8
Top_Mask
2
SHAPE_SQ_450_299_0_0_0_0
10
0.0000000
20
0.0000000
41
1.0000000
42
1.0000000
43
1.0000000
50
0.0000000
0
ENDBLK
0
BLOCK
2
ad920025
8
0
70
0
10
0.0000000
20
0.0000000
0
INSERT
8
Top_Mask
2
SHAPE_SQ_450_299_0_0_0_0
10
0.0000000
20
0.0000000
41
1.0000000
42
1.0000000
43
1.0000000
50
0.0000000
0
ENDBLK
0
BLOCK
2
ad92001
8
0
70
0
10
0.0000000
20
0.0000000
0
INSERT
8
Top_Mask
2
SHAPE_SQ_450_299_0_0_0_0
10
0.0000000
20
0.0000000
41
1.0000000
42
1.0000000
43
1.0000000
50
0.0000000
0
ENDBLK
0
BLOCK
2
ad920027
8
0
70
0
10
0.0000000
20
0.0000000
0
INSERT
8
Top_Mask
2
SHAPE_SQ_450_299_0_0_0_0
10
0.0000000
20
0.0000000
41
1.0000000
42
1.0000000
43
1.0000000
50
0.0000000
0
ENDBLK
0
BLOCK
2
ad920028
8
0
70
0
10
0.0000000
20
0.0000000
0
INSERT
8
Top_Mask
2
SHAPE_SQ_450_299_0_0_0_0
10
0.0000000
20
0.0000000
41
1.0000000
42
1.0000000
43
1.0000000
50
0.0000000
0
ENDBLK
0
BLOCK
2
ad92006
8
0
70
0
10
0.0000000
20
0.0000000
0
INSERT
8
Top_Mask
2
SHAPE_SQ_450_299_0_0_0_0
10
0.0000000
20
0.0000000
41
1.0000000
42
1.0000000
43
1.0000000
50
0.0000000
0
ENDBLK
0
BLOCK
2
ad92002
8
0
70
0
10
0.0000000
20
0.0000000
0
INSERT
8
Top_Mask
2
SHAPE_SQ_450_299_0_0_0_0
10
0.0000000
20
0.0000000
41
1.0000000
42
1.0000000
43
1.0000000
50
0.0000000
0
ENDBLK
0
BLOCK
2
ad920022
8
0
70
0
10
0.0000000
20
0.0000000
0
INSERT
8
Top_Mask
2
SHAPE_SQ_450_299_0_0_0_0
10
0.0000000
20
0.0000000
41
1.0000000
42
1.0000000
43
1.0000000
50
0.0000000
0
ENDBLK
0
BLOCK
2
ad920011
8
0
70
0
10
0.0000000
20
0.0000000
0
INSERT
8
Top_Mask
2
SHAPE_SQ_450_299_0_0_0_0
10
0.0000000
20
0.0000000
41
1.0000000
42
1.0000000
43
1.0000000
50
0.0000000
0
ENDBLK
0
BLOCK
2
ad920026
8
0
70
0
10
0.0000000
20
0.0000000
0
INSERT
8
Top_Mask
2
SHAPE_SQ_450_299_0_0_0_0
10
0.0000000
20
0.0000000
41
1.0000000
42
1.0000000
43
1.0000000
50
0.0000000
0
ENDBLK
0
BLOCK
2
Cross
8
0
70
0
10
0.0000000
20
0.0000000
0
LINE
8
Drill_Layer
6
CONTINUOUS
10
0.0000000
20
-12.7000000
11
0.0000000
21
12.7000000
0
LINE
8
Drill_Layer
6
CONTINUOUS
10
-12.7000000
20
0.0000000
11
12.7000000
21
0.0000000
0
ENDBLK
0
BLOCK
2
X
8
0
70
0
10
0.0000000
20
0.0000000
0
LINE
8
Drill_Layer
6
CONTINUOUS
10
-12.7000000
20
12.7000000
11
12.7000000
21
-12.7000000
0
LINE
8
Drill_Layer
6
CONTINUOUS
10
12.7000000
20
12.7000000
11
-12.7000000
21
-12.7000000
0
ENDBLK
0
BLOCK
2
Y
8
0
70
0
10
0.0000000
20
0.0000000
0
LINE
8
Drill_Layer
6
CONTINUOUS
10
0.0000000
20
-12.7000000
11
0.0000000
21
0.0000000
0
LINE
8
Drill_Layer
6
CONTINUOUS
10
-12.7000000
20
12.7000000
11
0.0000000
21
0.0000000
0
LINE
8
Drill_Layer
6
CONTINUOUS
10
0.0000000
20
0.0000000
11
12.7000000
21
12.7000000
0
ENDBLK
0
BLOCK
2
0805_453
8
0
70
0
10
0.0000000
20
0.0000000
0
ENDBLK
0
BLOCK
2
0805_470
8
0
70
0
10
0.0000000
20
0.0000000
0
ENDBLK
0
BLOCK
2
0805_486
8
0
70
0
10
0.0000000
20
0.0000000
0
ENDBLK
0
BLOCK
2
0805_502
8
0
70
0
10
0.0000000
20
0.0000000
0
ENDBLK
0
BLOCK
2
0805_518
8
0
70
0
10
0.0000000
20
0.0000000
0
ENDBLK
0
BLOCK
2
0805_535
8
0
70
0
10
0.0000000
20
0.0000000
0
ENDBLK
0
BLOCK
2
0805_552
8
0
70
0
10
0.0000000
20
0.0000000
0
ENDBLK
0
BLOCK
2
0805_569
8
0
70
0
10
0.0000000
20
0.0000000
0
ENDBLK
0
BLOCK
2
0805_586
8
0
70
0
10
0.0000000
20
0.0000000
0
ENDBLK
0
BLOCK
2
0805_603
8
0
70
0
10
0.0000000
20
0.0000000
0
ENDBLK
0
BLOCK
2
0805_620
8
0
70
0
10
0.0000000
20
0.0000000
0
ENDBLK
0
BLOCK
2
0805_636
8
0
70
0
10
0.0000000
20
0.0000000
0
ENDBLK
0
BLOCK
2
0805_653
8
0
70
0
10
0.0000000
20
0.0000000
0
ENDBLK
0
BLOCK
2
0805_669
8
0
70
0
10
0.0000000
20
0.0000000
0
ENDBLK
0
BLOCK
2
0805_705
8
0
70
0
10
0.0000000
20
0.0000000
0
ENDBLK
0
BLOCK
2
0805_722
8
0
70
0
10
0.0000000
20
0.0000000
0
ENDBLK
0
BLOCK
2
0805_738
8
0
70
0
10
0.0000000
20
0.0000000
0
ENDBLK
0
BLOCK
2
0805_755
8
0
70
0
10
0.0000000
20
0.0000000
0
ENDBLK
0
BLOCK
2
0805_772
8
0
70
0
10
0.0000000
20
0.0000000
0
ENDBLK
0
BLOCK
2
0805_789
8
0
70
0
10
0.0000000
20
0.0000000
0
ENDBLK
0
BLOCK
2
0805_805
8
0
70
0
10
0.0000000
20
0.0000000
0
ENDBLK
0
BLOCK
2
0805_822
8
0
70
0
10
0.0000000
20
0.0000000
0
ENDBLK
0
BLOCK
2
0805_839
8
0
70
0
10
0.0000000
20
0.0000000
0
ENDBLK
0
BLOCK
2
0805_855
8
0
70
0
10
0.0000000
20
0.0000000
0
ENDBLK
0
BLOCK
2
0805_871
8
0
70
0
10
0.0000000
20
0.0000000
0
ENDBLK
0
BLOCK
2
0805_889
8
0
70
0
10
0.0000000
20
0.0000000
0
ENDBLK
0
BLOCK
2
TR4_1_906
8
0
70
0
10
0.0000000
20
0.0000000
0
ENDBLK
0
BLOCK
2
GPIO_ORANGE_PI_1304
8
0
70
0
10
0.0000000
20
0.0000000
0
ENDBLK
0
BLOCK
2
500KHZ_941
8
0
70
0
10
0.0000000
20
0.0000000
0
ENDBLK
0
BLOCK
2
AD9200_953
8
0
70
0
10
0.0000000
20
0.0000000
0
ENDBLK
0
BLOCK
2
C13
8
0
70
0
10
0.0000000
20
0.0000000
0
INSERT
8
0
2
0805_453
10
0.0000000
20
0.0000000
41
1.0000000
42
1.0000000
43
1.0000000
50
0.0000000
0
INSERT
8
0
2
1x1_23
10
59.0550000
20
87.2650000
41
1.0000000
42
1.0000000
43
1.0000000
50
270.0000000
0
INSERT
8
0
2
1x1_222
10
59.0550000
20
89.2650000
41
1.0000000
42
1.0000000
43
1.0000000
50
270.0000000
0
ENDBLK
0
BLOCK
2
13
8
0
70
0
10
0.0000000
20
0.0000000
0
INSERT
8
0
2
0805_470
10
0.0000000
20
0.0000000
41
1.0000000
42
1.0000000
43
1.0000000
50
0.0000000
0
INSERT
8
0
2
1x1_221
10
56.5150000
20
87.2650000
41
1.0000000
42
1.0000000
43
1.0000000
50
90.0000000
0
INSERT
8
0
2
1x1_222
10
56.5150000
20
89.2650000
41
1.0000000
42
1.0000000
43
1.0000000
50
90.0000000
0
ENDBLK
0
BLOCK
2
R3
8
0
70
0
10
0.0000000
20
0.0000000
0
INSERT
8
0
2
0805_486
10
0.0000000
20
0.0000000
41
1.0000000
42
1.0000000
43
1.0000000
50
0.0000000
0
INSERT
8
0
2
1x1_22
10
58.4200000
20
92.9800000
41
1.0000000
42
1.0000000
43
1.0000000
50
270.0000000
0
INSERT
8
0
2
1x1_21
10
58.4200000
20
94.9800000
41
1.0000000
42
1.0000000
43
1.0000000
50
270.0000000
0
ENDBLK
0
BLOCK
2
R4
8
0
70
0
10
0.0000000
20
0.0000000
0
INSERT
8
0
2
0805_502
10
0.0000000
20
0.0000000
41
1.0000000
42
1.0000000
43
1.0000000
50
0.0000000
0
INSERT
8
0
2
1x1_226
10
59.4200000
20
96.8375000
41
1.0000000
42
1.0000000
43
1.0000000
50
0.0000000
0
INSERT
8
0
2
1x1_24
10
57.4200000
20
96.8375000
41
1.0000000
42
1.0000000
43
1.0000000
50
0.0000000
0
ENDBLK
0
BLOCK
2
C6
8
0
70
0
10
0.0000000
20
0.0000000
0
INSERT
8
0
2
0805_518
10
0.0000000
20
0.0000000
41
1.0000000
42
1.0000000
43
1.0000000
50
0.0000000
0
INSERT
8
0
2
1x1_28
10
54.9275000
20
103.1400000
41
1.0000000
42
1.0000000
43
1.0000000
50
270.0000000
0
INSERT
8
0
2
1x1_23
10
54.9275000
20
105.1400000
41
1.0000000
42
1.0000000
43
1.0000000
50
270.0000000
0
ENDBLK
0
BLOCK
2
C2
8
0
70
0
10
0.0000000
20
0.0000000
0
INSERT
8
0
2
0805_535
10
0.0000000
20
0.0000000
41
1.0000000
42
1.0000000
43
1.0000000
50
0.0000000
0
INSERT
8
0
2
1x1_26
10
64.1350000
20
89.2650000
41
1.0000000
42
1.0000000
43
1.0000000
50
90.0000000
0
INSERT
8
0
2
1x1_23
10
64.1350000
20
87.2650000
41
1.0000000
42
1.0000000
43
1.0000000
50
90.0000000
0
ENDBLK
0
BLOCK
2
C14
8
0
70
0
10
0.0000000
20
0.0000000
0
INSERT
8
0
2
0805_552
10
0.0000000
20
0.0000000
41
1.0000000
42
1.0000000
43
1.0000000
50
0.0000000
0
INSERT
8
0
2
1x1_223
10
73.0250000
20
89.2650000
41
1.0000000
42
1.0000000
43
1.0000000
50
90.0000000
0
INSERT
8
0
2
1x1_23
10
73.0250000
20
87.2650000
41
1.0000000
42
1.0000000
43
1.0000000
50
90.0000000
0
ENDBLK
0
BLOCK
2
R1
8
0
70
0
10
0.0000000
20
0.0000000
0
INSERT
8
0
2
0805_569
10
0.0000000
20
0.0000000
41
1.0000000
42
1.0000000
43
1.0000000
50
0.0000000
0
INSERT
8
0
2
1x1_228
10
70.4850000
20
89.2650000
41
1.0000000
42
1.0000000
43
1.0000000
50
90.0000000
0
INSERT
8
0
2
1x1_23
10
70.4850000
20
87.2650000
41
1.0000000
42
1.0000000
43
1.0000000
50
90.0000000
0
ENDBLK
0
BLOCK
2
C10
8
0
70
0
10
0.0000000
20
0.0000000
0
INSERT
8
0
2
0805_586
10
0.0000000
20
0.0000000
41
1.0000000
42
1.0000000
43
1.0000000
50
0.0000000
0
INSERT
8
0
2
1x1_25
10
48.6000000
20
92.1000000
41
1.0000000
42
1.0000000
43
1.0000000
50
0.0000000
0
INSERT
8
0
2
1x1_23
10
46.6000000
20
92.1000000
41
1.0000000
42
1.0000000
43
1.0000000
50
0.0000000
0
ENDBLK
0
BLOCK
2
C15
8
0
70
0
10
0.0000000
20
0.0000000
0
INSERT
8
0
2
0805_603
10
0.0000000
20
0.0000000
41
1.0000000
42
1.0000000
43
1.0000000
50
0.0000000
0
INSERT
8
0
2
1x1_23
10
58.7850000
20
84.4550000
41
1.0000000
42
1.0000000
43
1.0000000
50
0.0000000
0
INSERT
8
0
2
1x1_221
10
56.7850000
20
84.4550000
41
1.0000000
42
1.0000000
43
1.0000000
50
0.0000000
0
ENDBLK
0
BLOCK
2
R5
8
0
70
0
10
0.0000000
20
0.0000000
0
INSERT
8
0
2
0805_620
10
0.0000000
20
0.0000000
41
1.0000000
42
1.0000000
43
1.0000000
50
0.0000000
0
INSERT
8
0
2
1x1_227
10
59.4200000
20
98.7425000
41
1.0000000
42
1.0000000
43
1.0000000
50
0.0000000
0
INSERT
8
0
2
1x1_28
10
57.4200000
20
98.7425000
41
1.0000000
42
1.0000000
43
1.0000000
50
0.0000000
0
ENDBLK
0
BLOCK
2
C4
8
0
70
0
10
0.0000000
20
0.0000000
0
INSERT
8
0
2
0805_636
10
0.0000000
20
0.0000000
41
1.0000000
42
1.0000000
43
1.0000000
50
0.0000000
0
INSERT
8
0
2
1x1_28
10
55.2450000
20
98.7900000
41
1.0000000
42
1.0000000
43
1.0000000
50
90.0000000
0
INSERT
8
0
2
1x1_24
10
55.2450000
20
96.7900000
41
1.0000000
42
1.0000000
43
1.0000000
50
90.0000000
0
ENDBLK
0
BLOCK
2
R8
8
0
70
0
10
0.0000000
20
0.0000000
0
INSERT
8
0
2
0805_653
10
0.0000000
20
0.0000000
41
1.0000000
42
1.0000000
43
1.0000000
50
0.0000000
0
INSERT
8
0
2
1x1_2
10
66.7000000
20
81.9000000
41
1.0000000
42
1.0000000
43
1.0000000
50
270.0000000
0
INSERT
8
0
2
1x1_2
10
66.7000000
20
83.9000000
41
1.0000000
42
1.0000000
43
1.0000000
50
270.0000000
0
ENDBLK
0
BLOCK
2
R9
8
0
70
0
10
0.0000000
20
0.0000000
0
INSERT
8
0
2
0805_669
10
0.0000000
20
0.0000000
41
1.0000000
42
1.0000000
43
1.0000000
50
0.0000000
0
INSERT
8
0
2
1x1_2
10
71.5575000
20
81.9350000
41
1.0000000
42
1.0000000
43
1.0000000
50
270.0000000
0
INSERT
8
0
2
1x1_2
10
71.5575000
20
83.9350000
41
1.0000000
42
1.0000000
43
1.0000000
50
270.0000000
0
ENDBLK
0
BLOCK
2
C3
8
0
70
0
10
0.0000000
20
0.0000000
0
INSERT
8
0
2
0805_705
10
0.0000000
20
0.0000000
41
1.0000000
42
1.0000000
43
1.0000000
50
0.0000000
0
INSERT
8
0
2
1x1_26
10
61.5950000
20
89.2650000
41
1.0000000
42
1.0000000
43
1.0000000
50
90.0000000
0
INSERT
8
0
2
1x1_23
10
61.5950000
20
87.2650000
41
1.0000000
42
1.0000000
43
1.0000000
50
90.0000000
0
ENDBLK
0
BLOCK
2
R6
8
0
70
0
10
0.0000000
20
0.0000000
0
INSERT
8
0
2
0805_722
10
0.0000000
20
0.0000000
41
1.0000000
42
1.0000000
43
1.0000000
50
0.0000000
0
INSERT
8
0
2
1x1_228
10
54.2925000
20
88.5350000
41
1.0000000
42
1.0000000
43
1.0000000
50
270.0000000
0
INSERT
8
0
2
1x1_25
10
54.2925000
20
90.5350000
41
1.0000000
42
1.0000000
43
1.0000000
50
270.0000000
0
ENDBLK
0
BLOCK
2
C5
8
0
70
0
10
0.0000000
20
0.0000000
0
INSERT
8
0
2
0805_738
10
0.0000000
20
0.0000000
41
1.0000000
42
1.0000000
43
1.0000000
50
0.0000000
0
INSERT
8
0
2
1x1_28
10
54.9750000
20
100.9650000
41
1.0000000
42
1.0000000
43
1.0000000
50
0.0000000
0
INSERT
8
0
2
1x1_24
10
52.9750000
20
100.9650000
41
1.0000000
42
1.0000000
43
1.0000000
50
0.0000000
0
ENDBLK
0
BLOCK
2
C7
8
0
70
0
10
0.0000000
20
0.0000000
0
INSERT
8
0
2
0805_755
10
0.0000000
20
0.0000000
41
1.0000000
42
1.0000000
43
1.0000000
50
0.0000000
0
INSERT
8
0
2
1x1_24
10
52.3875000
20
103.1400000
41
1.0000000
42
1.0000000
43
1.0000000
50
270.0000000
0
INSERT
8
0
2
1x1_23
10
52.3875000
20
105.1400000
41
1.0000000
42
1.0000000
43
1.0000000
50
270.0000000
0
ENDBLK
0
BLOCK
2
C1
8
0
70
0
10
0.0000000
20
0.0000000
0
INSERT
8
0
2
0805_772
10
0.0000000
20
0.0000000
41
1.0000000
42
1.0000000
43
1.0000000
50
0.0000000
0
INSERT
8
0
2
1x1_228
10
67.9450000
20
89.2650000
41
1.0000000
42
1.0000000
43
1.0000000
50
90.0000000
0
INSERT
8
0
2
1x1_23
10
67.9450000
20
87.2650000
41
1.0000000
42
1.0000000
43
1.0000000
50
90.0000000
0
ENDBLK
0
BLOCK
2
15
8
0
70
0
10
0.0000000
20
0.0000000
0
INSERT
8
0
2
0805_789
10
0.0000000
20
0.0000000
41
1.0000000
42
1.0000000
43
1.0000000
50
0.0000000
0
INSERT
8
0
2
1x1_223
10
75.5650000
20
89.2650000
41
1.0000000
42
1.0000000
43
1.0000000
50
270.0000000
0
INSERT
8
0
2
1x1_221
10
75.5650000
20
87.2650000
41
1.0000000
42
1.0000000
43
1.0000000
50
270.0000000
0
ENDBLK
0
BLOCK
2
C12
8
0
70
0
10
0.0000000
20
0.0000000
0
INSERT
8
0
2
0805_805
10
0.0000000
20
0.0000000
41
1.0000000
42
1.0000000
43
1.0000000
50
0.0000000
0
INSERT
8
0
2
1x1_221
10
66.9450000
20
111.1250000
41
1.0000000
42
1.0000000
43
1.0000000
50
180.0000000
0
INSERT
8
0
2
1x1_23
10
68.9450000
20
111.1250000
41
1.0000000
42
1.0000000
43
1.0000000
50
180.0000000
0
ENDBLK
0
BLOCK
2
C11
8
0
70
0
10
0.0000000
20
0.0000000
0
INSERT
8
0
2
0805_822
10
0.0000000
20
0.0000000
41
1.0000000
42
1.0000000
43
1.0000000
50
0.0000000
0
INSERT
8
0
2
1x1_220
10
68.9450000
20
107.9500000
41
1.0000000
42
1.0000000
43
1.0000000
50
0.0000000
0
INSERT
8
0
2
1x1_225
10
66.9450000
20
107.9500000
41
1.0000000
42
1.0000000
43
1.0000000
50
0.0000000
0
ENDBLK
0
BLOCK
2
R7
8
0
70
0
10
0.0000000
20
0.0000000
0
INSERT
8
0
2
0805_839
10
0.0000000
20
0.0000000
41
1.0000000
42
1.0000000
43
1.0000000
50
0.0000000
0
INSERT
8
0
2
1x1_2
10
61.0575000
20
81.9350000
41
1.0000000
42
1.0000000
43
1.0000000
50
270.0000000
0
INSERT
8
0
2
1x1_2
10
61.0575000
20
83.9350000
41
1.0000000
42
1.0000000
43
1.0000000
50
270.0000000
0
ENDBLK
0
BLOCK
2
R2
8
0
70
0
10
0.0000000
20
0.0000000
0
INSERT
8
0
2
0805_855
10
0.0000000
20
0.0000000
41
1.0000000
42
1.0000000
43
1.0000000
50
0.0000000
0
INSERT
8
0
2
1x1_228
10
54.2925000
20
86.4075000
41
1.0000000
42
1.0000000
43
1.0000000
50
90.0000000
0
INSERT
8
0
2
1x1_221
10
54.2925000
20
84.4075000
41
1.0000000
42
1.0000000
43
1.0000000
50
90.0000000
0
ENDBLK
0
BLOCK
2
C8
8
0
70
0
10
0.0000000
20
0.0000000
0
INSERT
8
0
2
0805_871
10
0.0000000
20
0.0000000
41
1.0000000
42
1.0000000
43
1.0000000
50
0.0000000
0
INSERT
8
0
2
1x1_27
10
44.7675000
20
98.3775000
41
1.0000000
42
1.0000000
43
1.0000000
50
270.0000000
0
INSERT
8
0
2
1x1_2
10
44.7675000
20
100.3775000
41
1.0000000
42
1.0000000
43
1.0000000
50
270.0000000
0
ENDBLK
0
BLOCK
2
C16
8
0
70
0
10
0.0000000
20
0.0000000
0
INSERT
8
0
2
0805_889
10
0.0000000
20
0.0000000
41
1.0000000
42
1.0000000
43
1.0000000
50
0.0000000
0
INSERT
8
0
2
1x1_221
10
75.6125000
20
84.7725000
41
1.0000000
42
1.0000000
43
1.0000000
50
0.0000000
0
INSERT
8
0
2
1x1_23
10
73.6125000
20
84.7725000
41
1.0000000
42
1.0000000
43
1.0000000
50
0.0000000
0
ENDBLK
0
BLOCK
2
11
8
0
70
0
10
0.0000000
20
0.0000000
0
INSERT
8
0
2
TR4_1_906
10
0.0000000
20
0.0000000
41
1.0000000
42
1.0000000
43
1.0000000
50
0.0000000
0
INSERT
8
0
2
gen_pad3
10
43.8150000
20
88.2650000
41
1.0000000
42
1.0000000
43
1.0000000
50
0.0000000
0
INSERT
8
0
2
gen_pad7
10
43.8150000
20
95.8850000
41
1.0000000
42
1.0000000
43
1.0000000
50
0.0000000
0
INSERT
8
0
2
gen_pad2
10
51.4350000
20
88.2650000
41
1.0000000
42
1.0000000
43
1.0000000
50
0.0000000
0
INSERT
8
0
2
gen_pad5
10
51.4350000
20
92.0750000
41
1.0000000
42
1.0000000
43
1.0000000
50
0.0000000
0
INSERT
8
0
2
gen_pad1
10
51.4350000
20
95.8850000
41
1.0000000
42
1.0000000
43
1.0000000
50
0.0000000
0
ENDBLK
0
BLOCK
2
U3
8
0
70
0
10
0.0000000
20
0.0000000
0
INSERT
8
0
2
GPIO_ORANGE_PI_1304
10
0.0000000
20
0.0000000
41
1.0000000
42
1.0000000
43
1.0000000
50
0.0000000
0
INSERT
8
0
2
_Default_pad3
10
86.3600000
20
120.6500000
41
1.0000000
42
1.0000000
43
1.0000000
50
90.0000000
0
INSERT
8
0
2
_Default_pad19
10
86.3600000
20
115.5700000
41
1.0000000
42
1.0000000
43
1.0000000
50
90.0000000
0
INSERT
8
0
2
_Default_pad18
10
86.3600000
20
113.0300000
41
1.0000000
42
1.0000000
43
1.0000000
50
90.0000000
0
INSERT
8
0
2
_Default_pad16
10
86.3600000
20
107.9500000
41
1.0000000
42
1.0000000
43
1.0000000
50
90.0000000
0
INSERT
8
0
2
_Default_pad15
10
86.3600000
20
105.4100000
41
1.0000000
42
1.0000000
43
1.0000000
50
90.0000000
0
INSERT
8
0
2
_Default_pad14
10
86.3600000
20
90.1700000
41
1.0000000
42
1.0000000
43
1.0000000
50
90.0000000
0
INSERT
8
0
2
_Default_pad12
10
86.3600000
20
85.0900000
41
1.0000000
42
1.0000000
43
1.0000000
50
90.0000000
0
INSERT
8
0
2
_Default_pad10
10
86.3600000
20
77.4700000
41
1.0000000
42
1.0000000
43
1.0000000
50
90.0000000
0
INSERT
8
0
2
_Default_pad9
10
86.3600000
20
74.9300000
41
1.0000000
42
1.0000000
43
1.0000000
50
90.0000000
0
INSERT
8
0
2
_Default_pad17
10
86.3600000
20
110.4900000
41
1.0000000
42
1.0000000
43
1.0000000
50
90.0000000
0
INSERT
8
0
2
_Default_pad20
10
86.3600000
20
118.1100000
41
1.0000000
42
1.0000000
43
1.0000000
50
90.0000000
0
INSERT
8
0
2
_Default_pad21
10
86.3600000
20
72.3900000
41
1.0000000
42
1.0000000
43
1.0000000
50
90.0000000
0
INSERT
8
0
2
_Default_pad11
10
86.3600000
20
80.0100000
41
1.0000000
42
1.0000000
43
1.0000000
50
90.0000000
0
INSERT
8
0
2
_Default_pad13
10
86.3600000
20
87.6300000
41
1.0000000
42
1.0000000
43
1.0000000
50
90.0000000
0
ENDBLK
0
BLOCK
2
12
8
0
70
0
10
0.0000000
20
0.0000000
0
INSERT
8
0
2
500KHZ_941
10
0.0000000
20
0.0000000
41
1.0000000
42
1.0000000
43
1.0000000
50
0.0000000
0
INSERT
8
0
2
1
10
59.5000000
20
111.1250000
41
1.0000000
42
1.0000000
43
1.0000000
50
270.0000000
0
INSERT
8
0
2
121
10
63.5000000
20
111.1250000
41
1.0000000
42
1.0000000
43
1.0000000
50
270.0000000
0
INSERT
8
0
2
13
10
59.5000000
20
105.8550000
41
1.0000000
42
1.0000000
43
1.0000000
50
270.0000000
0
INSERT
8
0
2
125
10
63.5000000
20
105.8550000
41
1.0000000
42
1.0000000
43
1.0000000
50
270.0000000
0
ENDBLK
0
BLOCK
2
U2
8
0
70
0
10
0.0000000
20
0.0000000
0
INSERT
8
0
2
AD9200_953
10
0.0000000
20
0.0000000
41
1.0000000
42
1.0000000
43
1.0000000
50
0.0000000
0
INSERT
8
0
2
ad920013
10
71.1200000
20
99.1500000
41
1.0000000
42
1.0000000
43
1.0000000
50
180.0000000
0
INSERT
8
0
2
ad920014
10
71.1200000
20
99.8000000
41
1.0000000
42
1.0000000
43
1.0000000
50
180.0000000
0
INSERT
8
0
2
ad920015
10
71.1200000
20
100.4500000
41
1.0000000
42
1.0000000
43
1.0000000
50
180.0000000
0
INSERT
8
0
2
ad920016
10
71.1200000
20
101.1000000
41
1.0000000
42
1.0000000
43
1.0000000
50
180.0000000
0
INSERT
8
0
2
ad920017
10
71.1200000
20
101.7500000
41
1.0000000
42
1.0000000
43
1.0000000
50
180.0000000
0
INSERT
8
0
2
ad920018
10
71.1200000
20
102.4000000
41
1.0000000
42
1.0000000
43
1.0000000
50
180.0000000
0
INSERT
8
0
2
ad920019
10
71.1200000
20
103.0500000
41
1.0000000
42
1.0000000
43
1.0000000
50
180.0000000
0
INSERT
8
0
2
ad92003
10
71.1200000
20
103.7000000
41
1.0000000
42
1.0000000
43
1.0000000
50
180.0000000
0
INSERT
8
0
2
ad920012
10
71.1200000
20
98.5000000
41
1.0000000
42
1.0000000
43
1.0000000
50
180.0000000
0
INSERT
8
0
2
ad92003
10
71.1200000
20
95.2500000
41
1.0000000
42
1.0000000
43
1.0000000
50
180.0000000
0
INSERT
8
0
2
ad920023
10
71.1200000
20
95.9000000
41
1.0000000
42
1.0000000
43
1.0000000
50
180.0000000
0
INSERT
8
0
2
ad92009
10
71.1200000
20
96.5500000
41
1.0000000
42
1.0000000
43
1.0000000
50
180.0000000
0
INSERT
8
0
2
ad920010
10
71.1200000
20
97.2000000
41
1.0000000
42
1.0000000
43
1.0000000
50
180.0000000
0
INSERT
8
0
2
ad920025
10
63.9700000
20
103.7000000
41
1.0000000
42
1.0000000
43
1.0000000
50
180.0000000
0
INSERT
8
0
2
ad92003
10
63.9700000
20
103.0500000
41
1.0000000
42
1.0000000
43
1.0000000
50
180.0000000
0
INSERT
8
0
2
ad92003
10
63.9700000
20
102.4000000
41
1.0000000
42
1.0000000
43
1.0000000
50
180.0000000
0
INSERT
8
0
2
ad92003
10
63.9700000
20
101.7500000
41
1.0000000
42
1.0000000
43
1.0000000
50
180.0000000
0
INSERT
8
0
2
ad92003
10
63.9700000
20
101.1000000
41
1.0000000
42
1.0000000
43
1.0000000
50
180.0000000
0
INSERT
8
0
2
ad92003
10
63.9700000
20
100.4500000
41
1.0000000
42
1.0000000
43
1.0000000
50
180.0000000
0
INSERT
8
0
2
ad92001
10
63.9700000
20
99.8000000
41
1.0000000
42
1.0000000
43
1.0000000
50
180.0000000
0
INSERT
8
0
2
ad920027
10
63.9700000
20
99.1500000
41
1.0000000
42
1.0000000
43
1.0000000
50
180.0000000
0
INSERT
8
0
2
ad920028
10
63.9700000
20
98.5000000
41
1.0000000
42
1.0000000
43
1.0000000
50
180.0000000
0
INSERT
8
0
2
ad92001
10
63.9700000
20
97.2000000
41
1.0000000
42
1.0000000
43
1.0000000
50
180.0000000
0
INSERT
8
0
2
ad92006
10
63.9700000
20
96.5500000
41
1.0000000
42
1.0000000
43
1.0000000
50
180.0000000
0
INSERT
8
0
2
ad92002
10
63.9700000
20
95.9000000
41
1.0000000
42
1.0000000
43
1.0000000
50
180.0000000
0
INSERT
8
0
2
ad920022
10
63.9700000
20
95.2500000
41
1.0000000
42
1.0000000
43
1.0000000
50
180.0000000
0
INSERT
8
0
2
ad920011
10
71.1200000
20
97.8500000
41
1.0000000
42
1.0000000
43
1.0000000
50
180.0000000
0
INSERT
8
0
2
ad920026
10
63.9700000
20
97.8500000
41
1.0000000
42
1.0000000
43
1.0000000
50
180.0000000
0
ENDBLK
0
ENDSEC
0
SECTION
2
ENTITIES
0
INSERT
8
0
2
zaclepki
10
44.7675000
20
67.9450000
41
1.0000000
42
1.0000000
43
1.0000000
50
0.0000000
0
INSERT
8
0
2
zaclepki
10
43.4975000
20
74.2950000
41
1.0000000
42
1.0000000
43
1.0000000
50
0.0000000
0
INSERT
8
0
2
zaclepki
10
43.4975000
20
72.3900000
41
1.0000000
42
1.0000000
43
1.0000000
50
0.0000000
0
INSERT
8
0
2
zaclepki
10
43.4975000
20
70.4850000
41
1.0000000
42
1.0000000
43
1.0000000
50
0.0000000
0
INSERT
8
0
2
zaclepki
10
43.4975000
20
83.1850000
41
1.0000000
42
1.0000000
43
1.0000000
50
0.0000000
0
INSERT
8
0
2
zaclepki
10
43.4975000
20
81.2800000
41
1.0000000
42
1.0000000
43
1.0000000
50
0.0000000
0
INSERT
8
0
2
zaclepki
10
43.4975000
20
79.3750000
41
1.0000000
42
1.0000000
43
1.0000000
50
0.0000000
0
INSERT
8
0
2
zaclepki
10
43.4975000
20
77.7875000
41
1.0000000
42
1.0000000
43
1.0000000
50
0.0000000
0
INSERT
8
0
2
zaclepki
10
43.4975000
20
89.8525000
41
1.0000000
42
1.0000000
43
1.0000000
50
0.0000000
0
INSERT
8
0
2
zaclepki
10
43.4975000
20
88.5825000
41
1.0000000
42
1.0000000
43
1.0000000
50
0.0000000
0
INSERT
8
0
2
zaclepki
10
43.4975000
20
87.6300000
41
1.0000000
42
1.0000000
43
1.0000000
50
0.0000000
0
INSERT
8
0
2
zaclepki
10
43.4975000
20
85.0900000
41
1.0000000
42
1.0000000
43
1.0000000
50
0.0000000
0
INSERT
8
0
2
zaclepki
10
43.4975000
20
93.3450000
41
1.0000000
42
1.0000000
43
1.0000000
50
0.0000000
0
INSERT
8
0
2
zaclepki
10
45.0850000
20
93.3450000
41
1.0000000
42
1.0000000
43
1.0000000
50
0.0000000
0
INSERT
8
0
2
zaclepki
10
44.1325000
20
108.2675000
41
1.0000000
42
1.0000000
43
1.0000000
50
0.0000000
0
INSERT
8
0
2
zaclepki
10
44.1325000
20
109.5375000
41
1.0000000
42
1.0000000
43
1.0000000
50
0.0000000
0
INSERT
8
0
2
zaclepki
10
43.4975000
20
110.4900000
41
1.0000000
42
1.0000000
43
1.0000000
50
0.0000000
0
INSERT
8
0
2
zaclepki
10
43.4975000
20
113.3475000
41
1.0000000
42
1.0000000
43
1.0000000
50
0.0000000
0
INSERT
8
0
2
zaclepki
10
43.4975000
20
116.2050000
41
1.0000000
42
1.0000000
43
1.0000000
50
0.0000000
0
INSERT
8
0
2
zaclepki
10
43.4975000
20
119.3800000
41
1.0000000
42
1.0000000
43
1.0000000
50
0.0000000
0
INSERT
8
0
2
zaclepki
10
43.4975000
20
125.0950000
41
1.0000000
42
1.0000000
43
1.0000000
50
0.0000000
0
INSERT
8
0
2
zaclepki
10
47.3075000
20
67.9450000
41
1.0000000
42
1.0000000
43
1.0000000
50
0.0000000
0
INSERT
8
0
2
zaclepki
10
47.3075000
20
64.7700000
41
1.0000000
42
1.0000000
43
1.0000000
50
0.0000000
0
INSERT
8
0
2
zaclepki
10
49.8475000
20
64.7700000
41
1.0000000
42
1.0000000
43
1.0000000
50
0.0000000
0
INSERT
8
0
2
zaclepki
10
52.0700000
20
64.7700000
41
1.0000000
42
1.0000000
43
1.0000000
50
0.0000000
0
INSERT
8
0
2
zaclepki
10
47.6250000
20
81.2800000
41
1.0000000
42
1.0000000
43
1.0000000
50
0.0000000
0
INSERT
8
0
2
zaclepki
10
49.5300000
20
81.2800000
41
1.0000000
42
1.0000000
43
1.0000000
50
0.0000000
0
INSERT
8
0
2
zaclepki
10
51.4350000
20
81.2800000
41
1.0000000
42
1.0000000
43
1.0000000
50
0.0000000
0
INSERT
8
0
2
zaclepki
10
49.5300000
20
105.4100000
41
1.0000000
42
1.0000000
43
1.0000000
50
0.0000000
0
INSERT
8
0
2
zaclepki
10
49.5300000
20
107.6325000
41
1.0000000
42
1.0000000
43
1.0000000
50
0.0000000
0
INSERT
8
0
2
zaclepki
10
51.7525000
20
107.6325000
41
1.0000000
42
1.0000000
43
1.0000000
50
0.0000000
0
INSERT
8
0
2
zaclepki
10
47.3075000
20
110.4900000
41
1.0000000
42
1.0000000
43
1.0000000
50
0.0000000
0
INSERT
8
0
2
zaclepki
10
51.4350000
20
110.4900000
41
1.0000000
42
1.0000000
43
1.0000000
50
0.0000000
0
INSERT
8
0
2
zaclepki
10
46.6725000
20
125.0950000
41
1.0000000
42
1.0000000
43
1.0000000
50
0.0000000
0
INSERT
8
0
2
zaclepki
10
47.3075000
20
128.9050000
41
1.0000000
42
1.0000000
43
1.0000000
50
0.0000000
0
INSERT
8
0
2
zaclepki
10
47.3075000
20
126.3650000
41
1.0000000
42
1.0000000
43
1.0000000
50
0.0000000
0
INSERT
8
0
2
zaclepki
10
51.4350000
20
128.9050000
41
1.0000000
42
1.0000000
43
1.0000000
50
0.0000000
0
INSERT
8
0
2
zaclepki
10
53.9750000
20
64.7700000
41
1.0000000
42
1.0000000
43
1.0000000
50
0.0000000
0
INSERT
8
0
2
zaclepki
10
56.1975000
20
64.7700000
41
1.0000000
42
1.0000000
43
1.0000000
50
0.0000000
0
INSERT
8
0
2
zaclepki
10
58.4200000
20
64.7700000
41
1.0000000
42
1.0000000
43
1.0000000
50
0.0000000
0
INSERT
8
0
2
zaclepki
10
59.6900000
20
81.5975000
41
1.0000000
42
1.0000000
43
1.0000000
50
0.0000000
0
INSERT
8
0
2
zaclepki
10
60.3250000
20
80.6450000
41
1.0000000
42
1.0000000
43
1.0000000
50
0.0000000
0
INSERT
8
0
2
zaclepki
10
54.6100000
20
81.2800000
41
1.0000000
42
1.0000000
43
1.0000000
50
0.0000000
0
INSERT
8
0
2
zaclepki
10
56.1975000
20
81.2800000
41
1.0000000
42
1.0000000
43
1.0000000
50
0.0000000
0
INSERT
8
0
2
zaclepki
10
57.7850000
20
81.2800000
41
1.0000000
42
1.0000000
43
1.0000000
50
0.0000000
0
INSERT
8
0
2
C13
10
0.0000000
20
0.0000000
41
1.0000000
42
1.0000000
43
1.0000000
50
0.0000000
0
INSERT
8
0
2
13
10
0.0000000
20
0.0000000
41
1.0000000
42
1.0000000
43
1.0000000
50
0.0000000
0
INSERT
8
0
2
zaclepki
10
59.0550000
20
86.0425000
41
1.0000000
42
1.0000000
43
1.0000000
50
0.0000000
0
INSERT
8
0
2
zaclepki
10
60.0075000
20
84.7725000
41
1.0000000
42
1.0000000
43
1.0000000
50
0.0000000
0
INSERT
8
0
2
R3
10
0.0000000
20
0.0000000
41
1.0000000
42
1.0000000
43
1.0000000
50
0.0000000
0
INSERT
8
0
2
R4
10
0.0000000
20
0.0000000
41
1.0000000
42
1.0000000
43
1.0000000
50
0.0000000
0
INSERT
8
0
2
C6
10
0.0000000
20
0.0000000
41
1.0000000
42
1.0000000
43
1.0000000
50
0.0000000
0
INSERT
8
0
2
zaclepki
10
59.3725000
20
105.7275000
41
1.0000000
42
1.0000000
43
1.0000000
50
0.0000000
0
INSERT
8
0
2
zaclepki
10
59.0550000
20
107.3150000
41
1.0000000
42
1.0000000
43
1.0000000
50
0.0000000
0
INSERT
8
0
2
zaclepki
10
56.5150000
20
107.3150000
41
1.0000000
42
1.0000000
43
1.0000000
50
0.0000000
0
INSERT
8
0
2
zaclepki
10
54.2925000
20
110.4900000
41
1.0000000
42
1.0000000
43
1.0000000
50
0.0000000
0
INSERT
8
0
2
zaclepki
10
57.7850000
20
114.9350000
41
1.0000000
42
1.0000000
43
1.0000000
50
0.0000000
0
INSERT
8
0
2
zaclepki
10
55.8800000
20
128.9050000
41
1.0000000
42
1.0000000
43
1.0000000
50
0.0000000
0
INSERT
8
0
2
zaclepki
10
63.8175000
20
64.7700000
41
1.0000000
42
1.0000000
43
1.0000000
50
0.0000000
0
INSERT
8
0
2
zaclepki
10
66.0400000
20
64.7700000
41
1.0000000
42
1.0000000
43
1.0000000
50
0.0000000
0
INSERT
8
0
2
zaclepki
10
62.5475000
20
81.5975000
41
1.0000000
42
1.0000000
43
1.0000000
50
0.0000000
0
INSERT
8
0
2
zaclepki
10
61.9125000
20
80.6450000
41
1.0000000
42
1.0000000
43
1.0000000
50
0.0000000
0
INSERT
8
0
2
zaclepki
10
65.4050000
20
81.5975000
41
1.0000000
42
1.0000000
43
1.0000000
50
0.0000000
0
INSERT
8
0
2
zaclepki
10
67.6275000
20
80.6450000
41
1.0000000
42
1.0000000
43
1.0000000
50
0.0000000
0
INSERT
8
0
2
zaclepki
10
67.9450000
20
81.5975000
41
1.0000000
42
1.0000000
43
1.0000000
50
0.0000000
0
INSERT
8
0
2
zaclepki
10
65.7225000
20
80.6450000
41
1.0000000
42
1.0000000
43
1.0000000
50
0.0000000
0
INSERT
8
0
2
C2
10
0.0000000
20
0.0000000
41
1.0000000
42
1.0000000
43
1.0000000
50
0.0000000
0
INSERT
8
0
2
zaclepki
10
64.1350000
20
86.0425000
41
1.0000000
42
1.0000000
43
1.0000000
50
0.0000000
0
INSERT
8
0
2
zaclepki
10
61.5950000
20
86.0425000
41
1.0000000
42
1.0000000
43
1.0000000
50
0.0000000
0
INSERT
8
0
2
zaclepki
10
67.9450000
20
86.0425000
41
1.0000000
42
1.0000000
43
1.0000000
50
0.0000000
0
INSERT
8
0
2
zaclepki
10
66.0400000
20
86.3600000
41
1.0000000
42
1.0000000
43
1.0000000
50
0.0000000
0
INSERT
8
0
2
zaclepki
10
66.0400000
20
105.4100000
41
1.0000000
42
1.0000000
43
1.0000000
50
0.0000000
0
INSERT
8
0
2
zaclepki
10
67.3100000
20
105.4100000
41
1.0000000
42
1.0000000
43
1.0000000
50
0.0000000
0
INSERT
8
0
2
zaclepki
10
62.2300000
20
103.8225000
41
1.0000000
42
1.0000000
43
1.0000000
50
0.0000000
0
INSERT
8
0
2
zaclepki
10
62.2300000
20
102.5525000
41
1.0000000
42
1.0000000
43
1.0000000
50
0.0000000
0
INSERT
8
0
2
zaclepki
10
62.2300000
20
101.2825000
41
1.0000000
42
1.0000000
43
1.0000000
50
0.0000000
0
INSERT
8
0
2
zaclepki
10
65.7225000
20
103.8225000
41
1.0000000
42
1.0000000
43
1.0000000
50
0.0000000
0
INSERT
8
0
2
zaclepki
10
65.7225000
20
102.5525000
41
1.0000000
42
1.0000000
43
1.0000000
50
0.0000000
0
INSERT
8
0
2
zaclepki
10
65.7225000
20
101.2825000
41
1.0000000
42
1.0000000
43
1.0000000
50
0.0000000
0
INSERT
8
0
2
zaclepki
10
65.7225000
20
100.0125000
41
1.0000000
42
1.0000000
43
1.0000000
50
0.0000000
0
INSERT
8
0
2
zaclepki
10
67.3100000
20
99.6950000
41
1.0000000
42
1.0000000
43
1.0000000
50
0.0000000
0
INSERT
8
0
2
zaclepki
10
61.9125000
20
114.9350000
41
1.0000000
42
1.0000000
43
1.0000000
50
0.0000000
0
INSERT
8
0
2
zaclepki
10
66.0400000
20
114.9350000
41
1.0000000
42
1.0000000
43
1.0000000
50
0.0000000
0
INSERT
8
0
2
zaclepki
10
65.0875000
20
128.9050000
41
1.0000000
42
1.0000000
43
1.0000000
50
0.0000000
0
INSERT
8
0
2
zaclepki
10
70.8025000
20
64.7700000
41
1.0000000
42
1.0000000
43
1.0000000
50
0.0000000
0
INSERT
8
0
2
zaclepki
10
73.6600000
20
64.7700000
41
1.0000000
42
1.0000000
43
1.0000000
50
0.0000000
0
INSERT
8
0
2
zaclepki
10
70.4850000
20
80.6450000
41
1.0000000
42
1.0000000
43
1.0000000
50
0.0000000
0
INSERT
8
0
2
zaclepki
10
72.3900000
20
80.6450000
41
1.0000000
42
1.0000000
43
1.0000000
50
0.0000000
0
INSERT
8
0
2
zaclepki
10
70.1675000
20
81.5975000
41
1.0000000
42
1.0000000
43
1.0000000
50
0.0000000
0
INSERT
8
0
2
zaclepki
10
73.0250000
20
81.5975000
41
1.0000000
42
1.0000000
43
1.0000000
50
0.0000000
0
INSERT
8
0
2
zaclepki
10
74.9300000
20
81.2800000
41
1.0000000
42
1.0000000
43
1.0000000
50
0.0000000
0
INSERT
8
0
2
C14
10
0.0000000
20
0.0000000
41
1.0000000
42
1.0000000
43
1.0000000
50
0.0000000
0
INSERT
8
0
2
R1
10
0.0000000
20
0.0000000
41
1.0000000
42
1.0000000
43
1.0000000
50
0.0000000
0
INSERT
8
0
2
zaclepki
10
70.4850000
20
86.0425000
41
1.0000000
42
1.0000000
43
1.0000000
50
0.0000000
0
INSERT
8
0
2
zaclepki
10
73.0250000
20
86.0425000
41
1.0000000
42
1.0000000
43
1.0000000
50
0.0000000
0
INSERT
8
0
2
zaclepki
10
72.3900000
20
85.0900000
41
1.0000000
42
1.0000000
43
1.0000000
50
0.0000000
0
INSERT
8
0
2
zaclepki
10
69.5325000
20
93.9800000
41
1.0000000
42
1.0000000
43
1.0000000
50
0.0000000
0
INSERT
8
0
2
zaclepki
10
69.5325000
20
92.3925000
41
1.0000000
42
1.0000000
43
1.0000000
50
0.0000000
0
INSERT
8
0
2
zaclepki
10
73.0250000
20
92.7100000
41
1.0000000
42
1.0000000
43
1.0000000
50
0.0000000
0
INSERT
8
0
2
zaclepki
10
73.0250000
20
93.9800000
41
1.0000000
42
1.0000000
43
1.0000000
50
0.0000000
0
INSERT
8
0
2
zaclepki
10
71.4375000
20
94.2975000
41
1.0000000
42
1.0000000
43
1.0000000
50
0.0000000
0
INSERT
8
0
2
zaclepki
10
69.8500000
20
105.4100000
41
1.0000000
42
1.0000000
43
1.0000000
50
0.0000000
0
INSERT
8
0
2
zaclepki
10
71.1200000
20
105.4100000
41
1.0000000
42
1.0000000
43
1.0000000
50
0.0000000
0
INSERT
8
0
2
zaclepki
10
69.8500000
20
104.1400000
41
1.0000000
42
1.0000000
43
1.0000000
50
0.0000000
0
INSERT
8
0
2
zaclepki
10
70.1675000
20
111.1250000
41
1.0000000
42
1.0000000
43
1.0000000
50
0.0000000
0
INSERT
8
0
2
zaclepki
10
70.4850000
20
110.1725000
41
1.0000000
42
1.0000000
43
1.0000000
50
0.0000000
0
INSERT
8
0
2
zaclepki
10
71.7550000
20
110.1725000
41
1.0000000
42
1.0000000
43
1.0000000
50
0.0000000
0
INSERT
8
0
2
zaclepki
10
74.6125000
20
111.7600000
41
1.0000000
42
1.0000000
43
1.0000000
50
0.0000000
0
INSERT
8
0
2
zaclepki
10
73.0250000
20
110.8075000
41
1.0000000
42
1.0000000
43
1.0000000
50
0.0000000
0
INSERT
8
0
2
zaclepki
10
69.8500000
20
113.0300000
41
1.0000000
42
1.0000000
43
1.0000000
50
0.0000000
0
INSERT
8
0
2
zaclepki
10
69.5325000
20
114.9350000
41
1.0000000
42
1.0000000
43
1.0000000
50
0.0000000
0
INSERT
8
0
2
zaclepki
10
69.5325000
20
128.9050000
41
1.0000000
42
1.0000000
43
1.0000000
50
0.0000000
0
INSERT
8
0
2
zaclepki
10
73.9775000
20
128.9050000
41
1.0000000
42
1.0000000
43
1.0000000
50
0.0000000
0
INSERT
8
0
2
zaclepki
10
78.7400000
20
64.7700000
41
1.0000000
42
1.0000000
43
1.0000000
50
0.0000000
0
INSERT
8
0
2
zaclepki
10
80.9625000
20
64.7700000
41
1.0000000
42
1.0000000
43
1.0000000
50
0.0000000
0
INSERT
8
0
2
zaclepki
10
81.9150000
20
70.1675000
41
1.0000000
42
1.0000000
43
1.0000000
50
0.0000000
0
INSERT
8
0
2
zaclepki
10
81.9150000
20
74.9300000
41
1.0000000
42
1.0000000
43
1.0000000
50
0.0000000
0
INSERT
8
0
2
zaclepki
10
79.6925000
20
76.8350000
41
1.0000000
42
1.0000000
43
1.0000000
50
0.0000000
0
INSERT
8
0
2
zaclepki
10
78.1050000
20
78.4225000
41
1.0000000
42
1.0000000
43
1.0000000
50
0.0000000
0
INSERT
8
0
2
zaclepki
10
77.1525000
20
113.6650000
41
1.0000000
42
1.0000000
43
1.0000000
50
0.0000000
0
INSERT
8
0
2
zaclepki
10
79.6925000
20
115.5700000
41
1.0000000
42
1.0000000
43
1.0000000
50
0.0000000
0
INSERT
8
0
2
zaclepki
10
80.9625000
20
116.5225000
41
1.0000000
42
1.0000000
43
1.0000000
50
0.0000000
0
INSERT
8
0
2
zaclepki
10
82.2325000
20
117.4750000
41
1.0000000
42
1.0000000
43
1.0000000
50
0.0000000
0
INSERT
8
0
2
zaclepki
10
78.7400000
20
128.9050000
41
1.0000000
42
1.0000000
43
1.0000000
50
0.0000000
0
INSERT
8
0
2
diam_swer
10
86.3600000
20
65.0875000
41
1.0000000
42
1.0000000
43
1.0000000
50
0.0000000
0
INSERT
8
0
2
zaclepki
10
86.9950000
20
67.9450000
41
1.0000000
42
1.0000000
43
1.0000000
50
0.0000000
0
INSERT
8
0
2
zaclepki
10
86.9950000
20
70.4850000
41
1.0000000
42
1.0000000
43
1.0000000
50
0.0000000
0
INSERT
8
0
2
zaclepki
10
84.7725000
20
119.3800000
41
1.0000000
42
1.0000000
43
1.0000000
50
0.0000000
0
INSERT
8
0
2
zaclepki
10
84.7725000
20
120.6500000
41
1.0000000
42
1.0000000
43
1.0000000
50
0.0000000
0
INSERT
8
0
2
zaclepki
10
87.3125000
20
125.0950000
41
1.0000000
42
1.0000000
43
1.0000000
50
0.0000000
0
INSERT
8
0
2
zaclepki
10
87.3125000
20
123.5075000
41
1.0000000
42
1.0000000
43
1.0000000
50
0.0000000
0
INSERT
8
0
2
zaclepki
10
85.4075000
20
125.0950000
41
1.0000000
42
1.0000000
43
1.0000000
50
0.0000000
0
INSERT
8
0
2
zaclepki
10
43.4975000
20
91.7575000
41
1.0000000
42
1.0000000
43
1.0000000
50
0.0000000
0
INSERT
8
0
2
zaclepki
10
45.0850000
20
91.7575000
41
1.0000000
42
1.0000000
43
1.0000000
50
0.0000000
0
INSERT
8
0
2
zaclepki
10
43.4975000
20
76.2000000
41
1.0000000
42
1.0000000
43
1.0000000
50
0.0000000
0
INSERT
8
0
2
zaclepki
10
43.4975000
20
68.5800000
41
1.0000000
42
1.0000000
43
1.0000000
50
0.0000000
0
INSERT
8
0
2
zaclepki
10
44.1325000
20
106.6800000
41
1.0000000
42
1.0000000
43
1.0000000
50
0.0000000
0
INSERT
8
0
2
zaclepki
10
43.4975000
20
121.9200000
41
1.0000000
42
1.0000000
43
1.0000000
50
0.0000000
0
INSERT
8
0
2
C10
10
0.0000000
20
0.0000000
41
1.0000000
42
1.0000000
43
1.0000000
50
0.0000000
0
INSERT
8
0
2
zaclepki
10
52.3875000
20
106.3625000
41
1.0000000
42
1.0000000
43
1.0000000
50
0.0000000
0
INSERT
8
0
2
C15
10
0.0000000
20
0.0000000
41
1.0000000
42
1.0000000
43
1.0000000
50
0.0000000
0
INSERT
8
0
2
R5
10
0.0000000
20
0.0000000
41
1.0000000
42
1.0000000
43
1.0000000
50
0.0000000
0
INSERT
8
0
2
C4
10
0.0000000
20
0.0000000
41
1.0000000
42
1.0000000
43
1.0000000
50
0.0000000
0
INSERT
8
0
2
zaclepki
10
54.9275000
20
106.3625000
41
1.0000000
42
1.0000000
43
1.0000000
50
0.0000000
0
INSERT
8
0
2
zaclepki
10
54.2925000
20
114.6175000
41
1.0000000
42
1.0000000
43
1.0000000
50
0.0000000
0
INSERT
8
0
2
R8
10
0.0000000
20
0.0000000
41
1.0000000
42
1.0000000
43
1.0000000
50
0.0000000
0
INSERT
8
0
2
zaclepki
10
65.0875000
20
84.1375000
41
1.0000000
42
1.0000000
43
1.0000000
50
0.0000000
0
INSERT
8
0
2
zaclepki
10
62.5475000
20
84.1375000
41
1.0000000
42
1.0000000
43
1.0000000
50
0.0000000
0
INSERT
8
0
2
R9
10
0.0000000
20
0.0000000
41
1.0000000
42
1.0000000
43
1.0000000
50
0.0000000
0
INSERT
8
0
2
zaclepki
10
70.4850000
20
91.4400000
41
1.0000000
42
1.0000000
43
1.0000000
50
0.0000000
0
INSERT
8
0
2
zaclepki
10
71.7550000
20
91.4400000
41
1.0000000
42
1.0000000
43
1.0000000
50
0.0000000
0
INSERT
8
0
2
zaclepki
10
73.0250000
20
91.4400000
41
1.0000000
42
1.0000000
43
1.0000000
50
0.0000000
0
INSERT
8
0
2
zaclepki
10
69.8500000
20
84.1375000
41
1.0000000
42
1.0000000
43
1.0000000
50
0.0000000
0
INSERT
8
0
2
zaclepki
10
78.4225000
20
114.6175000
41
1.0000000
42
1.0000000
43
1.0000000
50
0.0000000
0
INSERT
8
0
2
zaclepki
10
84.7725000
20
121.9200000
41
1.0000000
42
1.0000000
43
1.0000000
50
0.0000000
0
INSERT
8
0
2
zaclepki
10
85.7250000
20
121.9200000
41
1.0000000
42
1.0000000
43
1.0000000
50
0.0000000
0
INSERT
8
0
2
zaclepki
10
86.6775000
20
121.9200000
41
1.0000000
42
1.0000000
43
1.0000000
50
0.0000000
0
INSERT
8
0
2
zaclepki
10
87.6300000
20
121.9200000
41
1.0000000
42
1.0000000
43
1.0000000
50
0.0000000
0
INSERT
8
0
2
diam_swer
10
86.3600000
20
127.9525000
41
1.0000000
42
1.0000000
43
1.0000000
50
0.0000000
0
INSERT
8
0
2
diam_swer
10
44.4500000
20
65.0875000
41
1.0000000
42
1.0000000
43
1.0000000
50
0.0000000
0
INSERT
8
0
2
zaclepki
10
60.9600000
20
64.7700000
41
1.0000000
42
1.0000000
43
1.0000000
50
0.0000000
0
INSERT
8
0
2
zaclepki
10
45.7200000
20
83.1850000
41
1.0000000
42
1.0000000
43
1.0000000
50
0.0000000
0
INSERT
8
0
2
zaclepki
10
45.7200000
20
81.2800000
41
1.0000000
42
1.0000000
43
1.0000000
50
0.0000000
0
INSERT
8
0
2
zaclepki
10
53.0225000
20
81.2800000
41
1.0000000
42
1.0000000
43
1.0000000
50
0.0000000
0
INSERT
8
0
2
C3
10
0.0000000
20
0.0000000
41
1.0000000
42
1.0000000
43
1.0000000
50
0.0000000
0
INSERT
8
0
2
R6
10
0.0000000
20
0.0000000
41
1.0000000
42
1.0000000
43
1.0000000
50
0.0000000
0
INSERT
8
0
2
zaclepki
10
45.7200000
20
90.4875000
41
1.0000000
42
1.0000000
43
1.0000000
50
0.0000000
0
INSERT
8
0
2
zaclepki
10
45.7200000
20
88.5825000
41
1.0000000
42
1.0000000
43
1.0000000
50
0.0000000
0
INSERT
8
0
2
zaclepki
10
45.7200000
20
86.9950000
41
1.0000000
42
1.0000000
43
1.0000000
50
0.0000000
0
INSERT
8
0
2
zaclepki
10
45.7200000
20
85.0900000
41
1.0000000
42
1.0000000
43
1.0000000
50
0.0000000
0
INSERT
8
0
2
C5
10
0.0000000
20
0.0000000
41
1.0000000
42
1.0000000
43
1.0000000
50
0.0000000
0
INSERT
8
0
2
C7
10
0.0000000
20
0.0000000
41
1.0000000
42
1.0000000
43
1.0000000
50
0.0000000
0
INSERT
8
0
2
zaclepki
10
45.4025000
20
108.2675000
41
1.0000000
42
1.0000000
43
1.0000000
50
0.0000000
0
INSERT
8
0
2
zaclepki
10
45.4025000
20
109.5375000
41
1.0000000
42
1.0000000
43
1.0000000
50
0.0000000
0
INSERT
8
0
2
zaclepki
10
60.6425000
20
128.9050000
41
1.0000000
42
1.0000000
43
1.0000000
50
0.0000000
0
INSERT
8
0
2
zaclepki
10
68.5800000
20
64.7700000
41
1.0000000
42
1.0000000
43
1.0000000
50
0.0000000
0
INSERT
8
0
2
zaclepki
10
76.2000000
20
64.7700000
41
1.0000000
42
1.0000000
43
1.0000000
50
0.0000000
0
INSERT
8
0
2
zaclepki
10
83.5025000
20
64.7700000
41
1.0000000
42
1.0000000
43
1.0000000
50
0.0000000
0
INSERT
8
0
2
zaclepki
10
83.5025000
20
67.6275000
41
1.0000000
42
1.0000000
43
1.0000000
50
0.0000000
0
INSERT
8
0
2
zaclepki
10
83.5025000
20
70.4850000
41
1.0000000
42
1.0000000
43
1.0000000
50
0.0000000
0
INSERT
8
0
2
zaclepki
10
76.2000000
20
80.0100000
41
1.0000000
42
1.0000000
43
1.0000000
50
0.0000000
0
INSERT
8
0
2
C1
10
0.0000000
20
0.0000000
41
1.0000000
42
1.0000000
43
1.0000000
50
0.0000000
0
INSERT
8
0
2
15
10
0.0000000
20
0.0000000
41
1.0000000
42
1.0000000
43
1.0000000
50
0.0000000
0
INSERT
8
0
2
zaclepki
10
68.5800000
20
105.4100000
41
1.0000000
42
1.0000000
43
1.0000000
50
0.0000000
0
INSERT
8
0
2
zaclepki
10
68.8975000
20
100.9650000
41
1.0000000
42
1.0000000
43
1.0000000
50
0.0000000
0
INSERT
8
0
2
zaclepki
10
68.8975000
20
102.5525000
41
1.0000000
42
1.0000000
43
1.0000000
50
0.0000000
0
INSERT
8
0
2
zaclepki
10
68.8975000
20
103.8225000
41
1.0000000
42
1.0000000
43
1.0000000
50
0.0000000
0
INSERT
8
0
2
zaclepki
10
68.8975000
20
99.6950000
41
1.0000000
42
1.0000000
43
1.0000000
50
0.0000000
0
INSERT
8
0
2
C12
10
0.0000000
20
0.0000000
41
1.0000000
42
1.0000000
43
1.0000000
50
0.0000000
0
INSERT
8
0
2
C11
10
0.0000000
20
0.0000000
41
1.0000000
42
1.0000000
43
1.0000000
50
0.0000000
0
INSERT
8
0
2
zaclepki
10
75.8825000
20
112.7125000
41
1.0000000
42
1.0000000
43
1.0000000
50
0.0000000
0
INSERT
8
0
2
zaclepki
10
83.5025000
20
118.4275000
41
1.0000000
42
1.0000000
43
1.0000000
50
0.0000000
0
INSERT
8
0
2
zaclepki
10
83.5025000
20
128.9050000
41
1.0000000
42
1.0000000
43
1.0000000
50
0.0000000
0
INSERT
8
0
2
zaclepki
10
83.5025000
20
127.3175000
41
1.0000000
42
1.0000000
43
1.0000000
50
0.0000000
0
INSERT
8
0
2
zaclepki
10
83.5025000
20
125.0950000
41
1.0000000
42
1.0000000
43
1.0000000
50
0.0000000
0
INSERT
8
0
2
R7
10
0.0000000
20
0.0000000
41
1.0000000
42
1.0000000
43
1.0000000
50
0.0000000
0
INSERT
8
0
2
R2
10
0.0000000
20
0.0000000
41
1.0000000
42
1.0000000
43
1.0000000
50
0.0000000
0
INSERT
8
0
2
C8
10
0.0000000
20
0.0000000
41
1.0000000
42
1.0000000
43
1.0000000
50
0.0000000
0
INSERT
8
0
2
zaclepki
10
45.4025000
20
106.6800000
41
1.0000000
42
1.0000000
43
1.0000000
50
0.0000000
0
INSERT
8
0
2
diam_swer
10
44.4500000
20
127.9525000
41
1.0000000
42
1.0000000
43
1.0000000
50
0.0000000
0
INSERT
8
0
2
C16
10
0.0000000
20
0.0000000
41
1.0000000
42
1.0000000
43
1.0000000
50
0.0000000
0
INSERT
8
0
2
zaclepki
10
68.2625000
20
84.1375000
41
1.0000000
42
1.0000000
43
1.0000000
50
0.0000000
0
INSERT
8
0
2
11
10
0.0000000
20
0.0000000
41
1.0000000
42
1.0000000
43
1.0000000
50
0.0000000
0
INSERT
8
0
2
U3
10
0.0000000
20
0.0000000
41
1.0000000
42
1.0000000
43
1.0000000
50
0.0000000
0
INSERT
8
0
2
12
10
0.0000000
20
0.0000000
41
1.0000000
42
1.0000000
43
1.0000000
50
0.0000000
0
INSERT
8
0
2
U2
10
0.0000000
20
0.0000000
41
1.0000000
42
1.0000000
43
1.0000000
50
0.0000000
0
ENDSEC
0
EOF
