M48
;FILE_FORMAT=4:2 (non-Excellon-standard format)
INCH
;TYPE=PLATED
T01C0.020
T02C0.038
T03C0.118
%
T01
X+000027Y+000027
X+000012Y+000037
Y+000045
Y+000052
Y+000066
Y+000072
Y+000087
X+000021
X+000012Y+000080
X+000021
X+000012Y+000095
Y+000105
X+000021Y+000095
Y+000102
X+000012Y+000114
X+000021Y+000116
X+000012Y+000109
X+000021
X+000018Y+000127
X+000012
Y+000195
X+000015Y+000191
Y+000186
X+000020Y+000191
Y+000186
X+000012Y+000206
X+000027Y+000195
X+000012Y+000217
Y+000230
Y+000251
X+000025
X+000046Y+000015
X+000037
X+000053
X+000043Y+000080
X+000036
X+000050
X+000056
X+000036Y+000175
X+000043Y+000195
X+000045Y+000184
X+000036
X+000055Y+000195
Y+000202
Y+000212
X+000043Y+000267
X+000071Y+000015
X+000081
X+000062
X+000068Y+000080
X+000076
X+000087
X+000062
X+000077Y+000094
X+000073Y+000099
X+000083
X+000075Y+000176
X+000086Y+000159
Y+000164
Y+000169
X+000075Y+000174
X+000078
X+000071
X+000072Y+000169
Y+000164
Y+000159
X+000078
Y+000169
X+000063Y+000182
X+000073
X+000085Y+000212
X+000070
X+000080Y+000267
X+000101Y+000015
X+000111
X+000092
X+000108Y+000080
X+000098
X+000117
X+000101Y+000100
X+000108Y+000099
X+000093
X+000115Y+000132
Y+000127
X+000113Y+000145
Y+000139
Y+000171
Y+000175
X+000100Y+000165
Y+000160
Y+000155
X+000113Y+000159
Y+000164
Y+000167
X+000107Y+000166
X+000103Y+000152
X+000108
X+000113
X+000116Y+000205
Y+000197
Y+000194
X+000101Y+000212
X+000116
X+000097Y+000267
X+000115
X+000131Y+000015
X+000141
Y+000075
X+000128Y+000080
X+000136Y+000079
X+000126Y+000095
X+000128Y+000099
Y+000132
Y+000127
X+000122Y+000132
Y+000127
X+000123Y+000171
X+000128
X+000123Y+000175
X+000128
Y+000196
X+000140Y+000204
X+000135Y+000200
X+000145Y+000207
X+000122Y+000194
X+000132Y+000267
X+000160Y+000015
X+000169Y+000015
Y+000028
X+000163Y+000055
Y+000042
X+000169Y+000038
X+000155Y+000062
X+000165Y+000222
X+000160Y+000219
X+000155Y+000215
X+000170Y+000226
X+000172Y+000235
Y+000230
X+000168Y+000267
Y+000260
Y+000251
X+000177
X+000184Y+000038
X+000185Y+000246
Y+000251
X+000020Y+000029
X+000012Y+000030
Y+000060
X+000018Y+000121
X+000012
X+000015Y+000180
X+000020
X+000012Y+000240
X+000047Y+000179
X+000057
X+000087Y+000091
X+000075Y+000179
X+000078
X+000071
X+000097Y+000091
X+000110
X+000116
X+000184Y+000029
X+000028Y+000015
X+000120
X+000028Y+000080
X+000118Y+000099
Y+000171
Y+000175
X+000061Y+000212
X+000028Y+000267
Y+000259
X+000061Y+000267
X+000151Y+000015
X+000148Y+000069
X+000151Y+000267
X+000150Y+000211
T02
X+000181Y+000235
Y+000215
Y+000205
Y+000185
Y+000175
Y+000115
Y+000095
Y+000065
Y+000055
Y+000195
Y+000225
Y+000045
Y+000075
Y+000105
T03
X+000015Y+000015
Y+000264
X+000181Y+000015
Y+000264
T00
M30
